<mxfile host="65bd71144e">
    <diagram id="Wy_pPj68s_y8wjzZ2pMG" name="Log in">
        <mxGraphModel dx="1039" dy="1631" grid="1" gridSize="10" guides="1" tooltips="1" connect="1" arrows="1" fold="1" page="1" pageScale="1" pageWidth="850" pageHeight="1100" math="0" shadow="0">
            <root>
                <mxCell id="0"/>
                <mxCell id="1" parent="0"/>
                <mxCell id="3WgOe7YUjyiD3pOOcJzo-2" value="" style="edgeStyle=none;html=1;" parent="1" source="3WgOe7YUjyiD3pOOcJzo-3" edge="1">
                    <mxGeometry relative="1" as="geometry">
                        <mxPoint x="154.7213595499959" y="99.99640786499874" as="sourcePoint"/>
                        <mxPoint x="280" y="100" as="targetPoint"/>
                    </mxGeometry>
                </mxCell>
                <mxCell id="3WgOe7YUjyiD3pOOcJzo-3" value="START" style="ellipse;shape=doubleEllipse;whiteSpace=wrap;html=1;" parent="1" vertex="1">
                    <mxGeometry x="100" y="70" width="100" height="60" as="geometry"/>
                </mxCell>
                <mxCell id="3WgOe7YUjyiD3pOOcJzo-4" value="" style="edgeStyle=none;html=1;" parent="1" source="3WgOe7YUjyiD3pOOcJzo-5" target="3WgOe7YUjyiD3pOOcJzo-8" edge="1">
                    <mxGeometry relative="1" as="geometry"/>
                </mxCell>
                <mxCell id="3WgOe7YUjyiD3pOOcJzo-5" value="Get user email +password&amp;nbsp;" style="shape=parallelogram;perimeter=parallelogramPerimeter;whiteSpace=wrap;html=1;fixedSize=1;" parent="1" vertex="1">
                    <mxGeometry x="270" y="70" width="120" height="60" as="geometry"/>
                </mxCell>
                <mxCell id="3WgOe7YUjyiD3pOOcJzo-6" value="" style="edgeStyle=none;html=1;" parent="1" source="3WgOe7YUjyiD3pOOcJzo-8" target="3WgOe7YUjyiD3pOOcJzo-10" edge="1">
                    <mxGeometry relative="1" as="geometry"/>
                </mxCell>
                <mxCell id="3WgOe7YUjyiD3pOOcJzo-7" value="" style="edgeStyle=none;html=1;" parent="1" source="3WgOe7YUjyiD3pOOcJzo-8" target="3WgOe7YUjyiD3pOOcJzo-12" edge="1">
                    <mxGeometry relative="1" as="geometry"/>
                </mxCell>
                <mxCell id="3WgOe7YUjyiD3pOOcJzo-8" value="Does the email address exist?" style="rhombus;whiteSpace=wrap;html=1;" parent="1" vertex="1">
                    <mxGeometry x="470" y="45" width="120" height="110" as="geometry"/>
                </mxCell>
                <mxCell id="3WgOe7YUjyiD3pOOcJzo-9" value="" style="edgeStyle=none;html=1;" parent="1" source="3WgOe7YUjyiD3pOOcJzo-10" target="3WgOe7YUjyiD3pOOcJzo-30" edge="1">
                    <mxGeometry relative="1" as="geometry"/>
                </mxCell>
                <mxCell id="3WgOe7YUjyiD3pOOcJzo-10" value="Look up passwords" style="whiteSpace=wrap;html=1;" parent="1" vertex="1">
                    <mxGeometry x="650" y="70" width="120" height="60" as="geometry"/>
                </mxCell>
                <mxCell id="3WgOe7YUjyiD3pOOcJzo-11" value="" style="edgeStyle=none;html=1;" parent="1" source="3WgOe7YUjyiD3pOOcJzo-12" target="3WgOe7YUjyiD3pOOcJzo-16" edge="1">
                    <mxGeometry relative="1" as="geometry"/>
                </mxCell>
                <mxCell id="3WgOe7YUjyiD3pOOcJzo-12" value="Log a message back to the user indicating they do not exist" style="whiteSpace=wrap;html=1;" parent="1" vertex="1">
                    <mxGeometry x="470" y="-80" width="120" height="60" as="geometry"/>
                </mxCell>
                <mxCell id="3WgOe7YUjyiD3pOOcJzo-13" value="NO" style="text;html=1;align=center;verticalAlign=middle;resizable=0;points=[];autosize=1;strokeColor=none;fillColor=none;" parent="1" vertex="1">
                    <mxGeometry x="490" y="-2" width="40" height="30" as="geometry"/>
                </mxCell>
                <mxCell id="3WgOe7YUjyiD3pOOcJzo-14" value="Yes" style="text;html=1;align=center;verticalAlign=middle;resizable=0;points=[];autosize=1;strokeColor=none;fillColor=none;" parent="1" vertex="1">
                    <mxGeometry x="590" y="70" width="40" height="30" as="geometry"/>
                </mxCell>
                <mxCell id="3WgOe7YUjyiD3pOOcJzo-15" value="" style="edgeStyle=none;html=1;" parent="1" source="3WgOe7YUjyiD3pOOcJzo-16" target="3WgOe7YUjyiD3pOOcJzo-19" edge="1">
                    <mxGeometry relative="1" as="geometry"/>
                </mxCell>
                <mxCell id="3WgOe7YUjyiD3pOOcJzo-16" value="Display prompt if they want to sign up&amp;nbsp;" style="whiteSpace=wrap;html=1;" parent="1" vertex="1">
                    <mxGeometry x="650" y="-80" width="120" height="60" as="geometry"/>
                </mxCell>
                <mxCell id="3WgOe7YUjyiD3pOOcJzo-17" value="" style="edgeStyle=none;html=1;" parent="1" source="3WgOe7YUjyiD3pOOcJzo-19" target="3WgOe7YUjyiD3pOOcJzo-21" edge="1">
                    <mxGeometry relative="1" as="geometry"/>
                </mxCell>
                <mxCell id="3WgOe7YUjyiD3pOOcJzo-18" value="" style="edgeStyle=none;html=1;" parent="1" source="3WgOe7YUjyiD3pOOcJzo-19" target="3WgOe7YUjyiD3pOOcJzo-25" edge="1">
                    <mxGeometry relative="1" as="geometry"/>
                </mxCell>
                <mxCell id="3WgOe7YUjyiD3pOOcJzo-19" value="Does user want to sign up?&amp;nbsp;" style="rhombus;whiteSpace=wrap;html=1;" parent="1" vertex="1">
                    <mxGeometry x="850" y="-95" width="110" height="90" as="geometry"/>
                </mxCell>
                <mxCell id="3WgOe7YUjyiD3pOOcJzo-20" value="" style="edgeStyle=none;html=1;" parent="1" source="3WgOe7YUjyiD3pOOcJzo-21" target="3WgOe7YUjyiD3pOOcJzo-22" edge="1">
                    <mxGeometry relative="1" as="geometry">
                        <mxPoint x="905" y="-250" as="targetPoint"/>
                    </mxGeometry>
                </mxCell>
                <mxCell id="3WgOe7YUjyiD3pOOcJzo-21" value="Terminate the program" style="whiteSpace=wrap;html=1;" parent="1" vertex="1">
                    <mxGeometry x="845" y="-200" width="120" height="60" as="geometry"/>
                </mxCell>
                <mxCell id="3WgOe7YUjyiD3pOOcJzo-22" value="END" style="ellipse;shape=doubleEllipse;whiteSpace=wrap;html=1;" parent="1" vertex="1">
                    <mxGeometry x="855" y="-300" width="100" height="60" as="geometry"/>
                </mxCell>
                <mxCell id="3WgOe7YUjyiD3pOOcJzo-23" value="NO" style="text;html=1;align=center;verticalAlign=middle;resizable=0;points=[];autosize=1;strokeColor=none;fillColor=none;" parent="1" vertex="1">
                    <mxGeometry x="860" y="-122" width="40" height="30" as="geometry"/>
                </mxCell>
                <mxCell id="3WgOe7YUjyiD3pOOcJzo-24" value="" style="edgeStyle=none;html=1;" parent="1" source="3WgOe7YUjyiD3pOOcJzo-25" target="3WgOe7YUjyiD3pOOcJzo-27" edge="1">
                    <mxGeometry relative="1" as="geometry"/>
                </mxCell>
                <mxCell id="3WgOe7YUjyiD3pOOcJzo-25" value="Load the sign up class&amp;nbsp;" style="whiteSpace=wrap;html=1;" parent="1" vertex="1">
                    <mxGeometry x="1060" y="-80" width="120" height="60" as="geometry"/>
                </mxCell>
                <mxCell id="3WgOe7YUjyiD3pOOcJzo-26" value="YES" style="text;html=1;align=center;verticalAlign=middle;resizable=0;points=[];autosize=1;strokeColor=none;fillColor=none;" parent="1" vertex="1">
                    <mxGeometry x="985" y="-80" width="50" height="30" as="geometry"/>
                </mxCell>
                <mxCell id="3WgOe7YUjyiD3pOOcJzo-27" value="END" style="ellipse;whiteSpace=wrap;html=1;" parent="1" vertex="1">
                    <mxGeometry x="1250" y="-90" width="80" height="80" as="geometry"/>
                </mxCell>
                <mxCell id="3WgOe7YUjyiD3pOOcJzo-28" value="" style="edgeStyle=none;html=1;" parent="1" source="3WgOe7YUjyiD3pOOcJzo-30" target="3WgOe7YUjyiD3pOOcJzo-32" edge="1">
                    <mxGeometry relative="1" as="geometry"/>
                </mxCell>
                <mxCell id="3WgOe7YUjyiD3pOOcJzo-29" value="" style="edgeStyle=none;html=1;" parent="1" source="3WgOe7YUjyiD3pOOcJzo-30" target="3WgOe7YUjyiD3pOOcJzo-38" edge="1">
                    <mxGeometry relative="1" as="geometry"/>
                </mxCell>
                <mxCell id="3WgOe7YUjyiD3pOOcJzo-30" value="Does password matched entered stored record?&amp;nbsp;" style="rhombus;whiteSpace=wrap;html=1;" parent="1" vertex="1">
                    <mxGeometry x="845" y="40" width="130" height="120" as="geometry"/>
                </mxCell>
                <mxCell id="3WgOe7YUjyiD3pOOcJzo-31" value="" style="edgeStyle=none;html=1;" parent="1" source="3WgOe7YUjyiD3pOOcJzo-32" target="3WgOe7YUjyiD3pOOcJzo-34" edge="1">
                    <mxGeometry relative="1" as="geometry"/>
                </mxCell>
                <mxCell id="3WgOe7YUjyiD3pOOcJzo-32" value="Log in successful" style="whiteSpace=wrap;html=1;" parent="1" vertex="1">
                    <mxGeometry x="1060" y="70" width="120" height="60" as="geometry"/>
                </mxCell>
                <mxCell id="3WgOe7YUjyiD3pOOcJzo-33" value="" style="edgeStyle=none;html=1;" parent="1" source="3WgOe7YUjyiD3pOOcJzo-34" target="3WgOe7YUjyiD3pOOcJzo-35" edge="1">
                    <mxGeometry relative="1" as="geometry"/>
                </mxCell>
                <mxCell id="3WgOe7YUjyiD3pOOcJzo-34" value="Load their current balance and print menu&amp;nbsp;" style="whiteSpace=wrap;html=1;" parent="1" vertex="1">
                    <mxGeometry x="1260" y="70" width="120" height="60" as="geometry"/>
                </mxCell>
                <mxCell id="3WgOe7YUjyiD3pOOcJzo-35" value="END" style="ellipse;whiteSpace=wrap;html=1;" parent="1" vertex="1">
                    <mxGeometry x="1450" y="60" width="80" height="80" as="geometry"/>
                </mxCell>
                <mxCell id="3WgOe7YUjyiD3pOOcJzo-36" value="YES" style="text;html=1;align=center;verticalAlign=middle;resizable=0;points=[];autosize=1;strokeColor=none;fillColor=none;" parent="1" vertex="1">
                    <mxGeometry x="985" y="68" width="50" height="30" as="geometry"/>
                </mxCell>
                <mxCell id="3WgOe7YUjyiD3pOOcJzo-37" value="" style="edgeStyle=none;html=1;" parent="1" source="3WgOe7YUjyiD3pOOcJzo-38" target="3WgOe7YUjyiD3pOOcJzo-41" edge="1">
                    <mxGeometry relative="1" as="geometry"/>
                </mxCell>
                <mxCell id="3WgOe7YUjyiD3pOOcJzo-38" value="Log in unsucessful" style="whiteSpace=wrap;html=1;" parent="1" vertex="1">
                    <mxGeometry x="850" y="230" width="120" height="60" as="geometry"/>
                </mxCell>
                <mxCell id="3WgOe7YUjyiD3pOOcJzo-39" value="NO" style="text;html=1;align=center;verticalAlign=middle;resizable=0;points=[];autosize=1;strokeColor=none;fillColor=none;" parent="1" vertex="1">
                    <mxGeometry x="915" y="180" width="40" height="30" as="geometry"/>
                </mxCell>
                <mxCell id="3WgOe7YUjyiD3pOOcJzo-40" value="" style="edgeStyle=none;html=1;" parent="1" source="3WgOe7YUjyiD3pOOcJzo-41" target="3WgOe7YUjyiD3pOOcJzo-52" edge="1">
                    <mxGeometry relative="1" as="geometry">
                        <mxPoint x="1000" y="360" as="targetPoint"/>
                    </mxGeometry>
                </mxCell>
                <mxCell id="3WgOe7YUjyiD3pOOcJzo-41" value="Prompt user to try again" style="whiteSpace=wrap;html=1;" parent="1" vertex="1">
                    <mxGeometry x="850" y="330" width="120" height="60" as="geometry"/>
                </mxCell>
                <mxCell id="3WgOe7YUjyiD3pOOcJzo-42" value="" style="edgeStyle=none;html=1;" parent="1" source="3WgOe7YUjyiD3pOOcJzo-44" target="3WgOe7YUjyiD3pOOcJzo-46" edge="1">
                    <mxGeometry relative="1" as="geometry"/>
                </mxCell>
                <mxCell id="3WgOe7YUjyiD3pOOcJzo-43" value="" style="edgeStyle=none;html=1;" parent="1" source="3WgOe7YUjyiD3pOOcJzo-44" target="3WgOe7YUjyiD3pOOcJzo-52" edge="1">
                    <mxGeometry relative="1" as="geometry"/>
                </mxCell>
                <mxCell id="3WgOe7YUjyiD3pOOcJzo-44" value="Is another password entered?" style="rhombus;whiteSpace=wrap;html=1;" parent="1" vertex="1">
                    <mxGeometry x="1140" y="305" width="105" height="110" as="geometry"/>
                </mxCell>
                <mxCell id="3WgOe7YUjyiD3pOOcJzo-45" value="" style="edgeStyle=none;html=1;" parent="1" source="3WgOe7YUjyiD3pOOcJzo-46" target="3WgOe7YUjyiD3pOOcJzo-48" edge="1">
                    <mxGeometry relative="1" as="geometry"/>
                </mxCell>
                <mxCell id="3WgOe7YUjyiD3pOOcJzo-46" value="Thank the user for using the service" style="whiteSpace=wrap;html=1;" parent="1" vertex="1">
                    <mxGeometry x="1320" y="330" width="120" height="60" as="geometry"/>
                </mxCell>
                <mxCell id="3WgOe7YUjyiD3pOOcJzo-47" value="NO" style="text;html=1;align=center;verticalAlign=middle;resizable=0;points=[];autosize=1;strokeColor=none;fillColor=none;" parent="1" vertex="1">
                    <mxGeometry x="1255" y="330" width="40" height="30" as="geometry"/>
                </mxCell>
                <mxCell id="3WgOe7YUjyiD3pOOcJzo-48" value="END" style="ellipse;whiteSpace=wrap;html=1;" parent="1" vertex="1">
                    <mxGeometry x="1510" y="320" width="80" height="80" as="geometry"/>
                </mxCell>
                <mxCell id="3WgOe7YUjyiD3pOOcJzo-49" value="" style="endArrow=classic;html=1;" parent="1" source="3WgOe7YUjyiD3pOOcJzo-44" target="3WgOe7YUjyiD3pOOcJzo-30" edge="1">
                    <mxGeometry width="50" height="50" relative="1" as="geometry">
                        <mxPoint x="1130" y="320" as="sourcePoint"/>
                        <mxPoint x="1180" y="270" as="targetPoint"/>
                    </mxGeometry>
                </mxCell>
                <mxCell id="3WgOe7YUjyiD3pOOcJzo-50" value="YES" style="text;html=1;align=center;verticalAlign=middle;resizable=0;points=[];autosize=1;strokeColor=none;fillColor=none;" parent="1" vertex="1">
                    <mxGeometry x="1080" y="230" width="50" height="30" as="geometry"/>
                </mxCell>
                <mxCell id="3WgOe7YUjyiD3pOOcJzo-51" value="" style="edgeStyle=none;html=1;" parent="1" source="3WgOe7YUjyiD3pOOcJzo-52" target="3WgOe7YUjyiD3pOOcJzo-44" edge="1">
                    <mxGeometry relative="1" as="geometry"/>
                </mxCell>
                <mxCell id="3WgOe7YUjyiD3pOOcJzo-52" value="User enters their choice" style="shape=parallelogram;perimeter=parallelogramPerimeter;whiteSpace=wrap;html=1;fixedSize=1;" parent="1" vertex="1">
                    <mxGeometry x="1000" y="330" width="120" height="60" as="geometry"/>
                </mxCell>
                <mxCell id="3WgOe7YUjyiD3pOOcJzo-53" value="" style="edgeStyle=none;html=1;" parent="1" target="3WgOe7YUjyiD3pOOcJzo-44" edge="1">
                    <mxGeometry relative="1" as="geometry">
                        <mxPoint x="1110" y="360" as="sourcePoint"/>
                        <mxPoint x="1140" y="360" as="targetPoint"/>
                    </mxGeometry>
                </mxCell>
            </root>
        </mxGraphModel>
    </diagram>
    <diagram id="OsvKQiwM4gnvPbCagC_g" name="Sign up">
        <mxGraphModel dx="1816" dy="693" grid="1" gridSize="10" guides="1" tooltips="1" connect="1" arrows="1" fold="1" page="1" pageScale="1" pageWidth="850" pageHeight="1100" math="0" shadow="0">
            <root>
                <mxCell id="0"/>
                <mxCell id="1" parent="0"/>
                <mxCell id="4" value="" style="edgeStyle=none;html=1;entryX=0.01;entryY=0.631;entryDx=0;entryDy=0;entryPerimeter=0;" parent="1" target="3" edge="1">
                    <mxGeometry relative="1" as="geometry">
                        <mxPoint x="120" y="422" as="sourcePoint"/>
                        <mxPoint x="210" y="380" as="targetPoint"/>
                        <Array as="points">
                            <mxPoint x="120" y="422"/>
                        </Array>
                    </mxGeometry>
                </mxCell>
                <mxCell id="2" value="Start" style="strokeWidth=2;html=1;shape=mxgraph.flowchart.start_1;whiteSpace=wrap;" parent="1" vertex="1">
                    <mxGeometry x="50" y="420" width="100" height="60" as="geometry"/>
                </mxCell>
                <mxCell id="6" value="" style="edgeStyle=none;html=1;" parent="1" source="3" target="5" edge="1">
                    <mxGeometry relative="1" as="geometry"/>
                </mxCell>
                <mxCell id="3" value="Ask the user for their name&amp;nbsp;" style="whiteSpace=wrap;html=1;strokeWidth=2;" parent="1" vertex="1">
                    <mxGeometry x="220" y="320" width="120" height="60" as="geometry"/>
                </mxCell>
                <mxCell id="8" value="" style="edgeStyle=none;html=1;" parent="1" target="7" edge="1">
                    <mxGeometry relative="1" as="geometry">
                        <mxPoint x="149.99714285714265" y="449.4985714285713" as="sourcePoint"/>
                        <mxPoint x="300" y="449.5" as="targetPoint"/>
                    </mxGeometry>
                </mxCell>
                <mxCell id="5" value="User enters their name&amp;nbsp;&amp;nbsp;" style="shape=parallelogram;perimeter=parallelogramPerimeter;whiteSpace=wrap;html=1;fixedSize=1;" parent="1" vertex="1">
                    <mxGeometry x="400" y="320" width="120" height="60" as="geometry"/>
                </mxCell>
                <mxCell id="10" value="" style="edgeStyle=none;html=1;" parent="1" source="7" target="9" edge="1">
                    <mxGeometry relative="1" as="geometry"/>
                </mxCell>
                <mxCell id="7" value="Prompt user for their email" style="whiteSpace=wrap;html=1;" parent="1" vertex="1">
                    <mxGeometry x="220" y="420" width="120" height="60" as="geometry"/>
                </mxCell>
                <mxCell id="12" value="" style="edgeStyle=none;html=1;entryX=0.447;entryY=-0.036;entryDx=0;entryDy=0;entryPerimeter=0;" parent="1" target="11" edge="1">
                    <mxGeometry relative="1" as="geometry">
                        <mxPoint x="130.0011764705883" y="477.99647058823535" as="sourcePoint"/>
                        <mxPoint x="-20.439999999999998" y="550.4311111111111" as="targetPoint"/>
                    </mxGeometry>
                </mxCell>
                <mxCell id="9" value="User enters their email address" style="shape=parallelogram;perimeter=parallelogramPerimeter;whiteSpace=wrap;html=1;fixedSize=1;" parent="1" vertex="1">
                    <mxGeometry x="400" y="420" width="120" height="60" as="geometry"/>
                </mxCell>
                <mxCell id="14" value="" style="edgeStyle=none;html=1;" parent="1" source="11" target="13" edge="1">
                    <mxGeometry relative="1" as="geometry"/>
                </mxCell>
                <mxCell id="11" value="Prompt user for their password" style="whiteSpace=wrap;html=1;" parent="1" vertex="1">
                    <mxGeometry x="200" y="540" width="120" height="60" as="geometry"/>
                </mxCell>
                <mxCell id="13" value="User enters their password&amp;nbsp;" style="shape=parallelogram;perimeter=parallelogramPerimeter;whiteSpace=wrap;html=1;fixedSize=1;" parent="1" vertex="1">
                    <mxGeometry x="400" y="540" width="120" height="60" as="geometry"/>
                </mxCell>
                <mxCell id="15" value="" style="curved=1;endArrow=classic;html=1;" parent="1" target="19" edge="1">
                    <mxGeometry width="50" height="50" relative="1" as="geometry">
                        <mxPoint x="510" y="350" as="sourcePoint"/>
                        <mxPoint x="680" y="440" as="targetPoint"/>
                        <Array as="points">
                            <mxPoint x="560" y="350"/>
                            <mxPoint x="510" y="300"/>
                        </Array>
                    </mxGeometry>
                </mxCell>
                <mxCell id="17" value="" style="curved=1;endArrow=classic;html=1;entryX=0;entryY=1;entryDx=0;entryDy=0;" parent="1" target="19" edge="1">
                    <mxGeometry width="50" height="50" relative="1" as="geometry">
                        <mxPoint x="510" y="570" as="sourcePoint"/>
                        <mxPoint x="690" y="480" as="targetPoint"/>
                        <Array as="points">
                            <mxPoint x="560" y="570"/>
                            <mxPoint x="510" y="520"/>
                        </Array>
                    </mxGeometry>
                </mxCell>
                <mxCell id="18" value="" style="endArrow=classic;html=1;" parent="1" target="19" edge="1">
                    <mxGeometry width="50" height="50" relative="1" as="geometry">
                        <mxPoint x="510" y="460" as="sourcePoint"/>
                        <mxPoint x="680" y="460" as="targetPoint"/>
                    </mxGeometry>
                </mxCell>
                <mxCell id="28" value="" style="edgeStyle=none;html=1;entryX=0;entryY=0.5;entryDx=0;entryDy=0;" parent="1" source="19" target="30" edge="1">
                    <mxGeometry relative="1" as="geometry">
                        <mxPoint x="910" y="460" as="targetPoint"/>
                    </mxGeometry>
                </mxCell>
                <mxCell id="19" value="Do alll inputs contain a value?" style="rhombus;whiteSpace=wrap;html=1;" parent="1" vertex="1">
                    <mxGeometry x="670" y="400" width="140" height="120" as="geometry"/>
                </mxCell>
                <mxCell id="21" value="" style="line;strokeWidth=2;direction=south;html=1;" parent="1" vertex="1">
                    <mxGeometry x="735" y="190" width="10" height="210" as="geometry"/>
                </mxCell>
                <mxCell id="22" value="" style="line;strokeWidth=2;html=1;" parent="1" vertex="1">
                    <mxGeometry x="100" y="190" width="645" height="10" as="geometry"/>
                </mxCell>
                <mxCell id="23" value="" style="line;strokeWidth=2;direction=south;html=1;" parent="1" vertex="1">
                    <mxGeometry x="95" y="190" width="10" height="230" as="geometry"/>
                </mxCell>
                <mxCell id="24" value="NO" style="text;html=1;align=center;verticalAlign=middle;resizable=0;points=[];autosize=1;strokeColor=none;fillColor=none;" parent="1" vertex="1">
                    <mxGeometry x="750" y="308" width="40" height="30" as="geometry"/>
                </mxCell>
                <mxCell id="26" value="Display a message with the inputs that are required and restart process" style="rounded=0;whiteSpace=wrap;html=1;" parent="1" vertex="1">
                    <mxGeometry x="350" y="160" width="158" height="75" as="geometry"/>
                </mxCell>
                <mxCell id="29" value="YES" style="text;html=1;align=center;verticalAlign=middle;resizable=0;points=[];autosize=1;strokeColor=none;fillColor=none;" parent="1" vertex="1">
                    <mxGeometry x="830" y="430" width="50" height="30" as="geometry"/>
                </mxCell>
                <mxCell id="32" value="" style="edgeStyle=none;html=1;" parent="1" source="30" target="31" edge="1">
                    <mxGeometry relative="1" as="geometry"/>
                </mxCell>
                <mxCell id="49" value="" style="edgeStyle=none;html=1;" parent="1" source="30" target="48" edge="1">
                    <mxGeometry relative="1" as="geometry"/>
                </mxCell>
                <mxCell id="30" value="Does email already exist in the CSV file?" style="rhombus;whiteSpace=wrap;html=1;" parent="1" vertex="1">
                    <mxGeometry x="910" y="400" width="140" height="120" as="geometry"/>
                </mxCell>
                <mxCell id="35" value="" style="edgeStyle=none;html=1;" parent="1" source="31" target="34" edge="1">
                    <mxGeometry relative="1" as="geometry"/>
                </mxCell>
                <mxCell id="31" value="Log a message suggesting that the user already has an account - prompt sign in" style="whiteSpace=wrap;html=1;" parent="1" vertex="1">
                    <mxGeometry x="902.5" y="610" width="155" height="70" as="geometry"/>
                </mxCell>
                <mxCell id="33" value="YES" style="text;html=1;align=center;verticalAlign=middle;resizable=0;points=[];autosize=1;strokeColor=none;fillColor=none;" parent="1" vertex="1">
                    <mxGeometry x="925" y="540" width="50" height="30" as="geometry"/>
                </mxCell>
                <mxCell id="37" value="" style="edgeStyle=none;html=1;" parent="1" source="34" target="36" edge="1">
                    <mxGeometry relative="1" as="geometry"/>
                </mxCell>
                <mxCell id="34" value="Display sign in option&amp;nbsp;" style="whiteSpace=wrap;html=1;" parent="1" vertex="1">
                    <mxGeometry x="1140" y="615" width="120" height="60" as="geometry"/>
                </mxCell>
                <mxCell id="39" value="" style="edgeStyle=none;html=1;" parent="1" source="36" target="38" edge="1">
                    <mxGeometry relative="1" as="geometry"/>
                </mxCell>
                <mxCell id="44" value="" style="edgeStyle=none;html=1;" parent="1" source="36" target="43" edge="1">
                    <mxGeometry relative="1" as="geometry"/>
                </mxCell>
                <mxCell id="36" value="Does user want to sign in?" style="rhombus;whiteSpace=wrap;html=1;" parent="1" vertex="1">
                    <mxGeometry x="1350" y="592.5" width="110" height="105" as="geometry"/>
                </mxCell>
                <mxCell id="42" value="" style="edgeStyle=none;html=1;" parent="1" source="38" target="41" edge="1">
                    <mxGeometry relative="1" as="geometry"/>
                </mxCell>
                <mxCell id="38" value="Thank the user for using the service and terminate program" style="whiteSpace=wrap;html=1;" parent="1" vertex="1">
                    <mxGeometry x="1345" y="760" width="120" height="60" as="geometry"/>
                </mxCell>
                <mxCell id="40" value="NO" style="text;html=1;align=center;verticalAlign=middle;resizable=0;points=[];autosize=1;strokeColor=none;fillColor=none;" parent="1" vertex="1">
                    <mxGeometry x="1360" y="710" width="40" height="30" as="geometry"/>
                </mxCell>
                <mxCell id="41" value="END" style="ellipse;whiteSpace=wrap;html=1;" parent="1" vertex="1">
                    <mxGeometry x="1365" y="880" width="80" height="80" as="geometry"/>
                </mxCell>
                <mxCell id="46" value="" style="edgeStyle=none;html=1;" parent="1" source="43" target="45" edge="1">
                    <mxGeometry relative="1" as="geometry"/>
                </mxCell>
                <mxCell id="43" value="Call the log in class - user can now sign in" style="whiteSpace=wrap;html=1;" parent="1" vertex="1">
                    <mxGeometry x="1535" y="615" width="120" height="60" as="geometry"/>
                </mxCell>
                <mxCell id="45" value="END" style="ellipse;whiteSpace=wrap;html=1;" parent="1" vertex="1">
                    <mxGeometry x="1755" y="605" width="80" height="80" as="geometry"/>
                </mxCell>
                <mxCell id="47" value="YES" style="text;html=1;align=center;verticalAlign=middle;resizable=0;points=[];autosize=1;strokeColor=none;fillColor=none;" parent="1" vertex="1">
                    <mxGeometry x="1465" y="610" width="50" height="30" as="geometry"/>
                </mxCell>
                <mxCell id="52" value="" style="edgeStyle=none;html=1;" parent="1" source="48" target="51" edge="1">
                    <mxGeometry relative="1" as="geometry"/>
                </mxCell>
                <mxCell id="48" value="Add all of the credentials into the userCredentials.csv file&amp;nbsp;" style="whiteSpace=wrap;html=1;" parent="1" vertex="1">
                    <mxGeometry x="1130" y="430" width="120" height="60" as="geometry"/>
                </mxCell>
                <mxCell id="50" value="NO" style="text;html=1;align=center;verticalAlign=middle;resizable=0;points=[];autosize=1;strokeColor=none;fillColor=none;" parent="1" vertex="1">
                    <mxGeometry x="1060" y="428" width="40" height="30" as="geometry"/>
                </mxCell>
                <mxCell id="55" value="" style="edgeStyle=none;html=1;" parent="1" source="51" target="54" edge="1">
                    <mxGeometry relative="1" as="geometry"/>
                </mxCell>
                <mxCell id="51" value="Intialise their account into the userBalances.csv with $0" style="whiteSpace=wrap;html=1;" parent="1" vertex="1">
                    <mxGeometry x="1320" y="430" width="120" height="60" as="geometry"/>
                </mxCell>
                <mxCell id="53" value="TODO: Create a method for this" style="text;html=1;align=center;verticalAlign=middle;resizable=0;points=[];autosize=1;strokeColor=none;fillColor=none;" parent="1" vertex="1">
                    <mxGeometry x="1285" y="398" width="190" height="30" as="geometry"/>
                </mxCell>
                <mxCell id="57" value="" style="edgeStyle=none;html=1;" parent="1" source="54" target="56" edge="1">
                    <mxGeometry relative="1" as="geometry"/>
                </mxCell>
                <mxCell id="54" value="Return to the main App.java file and display the current balance + main menu" style="whiteSpace=wrap;html=1;" parent="1" vertex="1">
                    <mxGeometry x="1520" y="430" width="120" height="60" as="geometry"/>
                </mxCell>
                <mxCell id="56" value="END" style="ellipse;whiteSpace=wrap;html=1;" parent="1" vertex="1">
                    <mxGeometry x="1740" y="420" width="80" height="80" as="geometry"/>
                </mxCell>
                <mxCell id="58" value="" style="shape=curlyBracket;whiteSpace=wrap;html=1;rounded=1;flipH=1;labelPosition=right;verticalLabelPosition=middle;align=left;verticalAlign=middle;rotation=90;size=0.5;" parent="1" vertex="1">
                    <mxGeometry x="350" y="482.5" width="20" height="325" as="geometry"/>
                </mxCell>
                <mxCell id="60" value="&lt;font style=&quot;font-size: 18px;&quot;&gt;THESE ARE PERFORMED SERIALLY&lt;/font&gt;" style="text;html=1;align=center;verticalAlign=middle;resizable=0;points=[];autosize=1;strokeColor=none;fillColor=none;" parent="1" vertex="1">
                    <mxGeometry x="190" y="657.5" width="330" height="40" as="geometry"/>
                </mxCell>
            </root>
        </mxGraphModel>
    </diagram>
    <diagram id="96fN_D5lsebocOgehj62" name="Transaction history">
        <mxGraphModel dx="1257" dy="907" grid="1" gridSize="10" guides="1" tooltips="1" connect="1" arrows="1" fold="1" page="1" pageScale="1" pageWidth="850" pageHeight="1100" math="0" shadow="0">
            <root>
                <mxCell id="0"/>
                <mxCell id="1" parent="0"/>
                <mxCell id="TCJBprTSWfQyW1QQgeVR-3" value="" style="edgeStyle=none;html=1;" parent="1" source="TCJBprTSWfQyW1QQgeVR-1" target="TCJBprTSWfQyW1QQgeVR-2" edge="1">
                    <mxGeometry relative="1" as="geometry"/>
                </mxCell>
                <mxCell id="TCJBprTSWfQyW1QQgeVR-1" value="Trigger - User performs a transaction" style="strokeWidth=2;html=1;shape=mxgraph.flowchart.start_2;whiteSpace=wrap;" parent="1" vertex="1">
                    <mxGeometry x="-40" y="320" width="100" height="100" as="geometry"/>
                </mxCell>
                <mxCell id="TCJBprTSWfQyW1QQgeVR-5" value="" style="edgeStyle=none;html=1;" parent="1" source="TCJBprTSWfQyW1QQgeVR-2" target="TCJBprTSWfQyW1QQgeVR-4" edge="1">
                    <mxGeometry relative="1" as="geometry"/>
                </mxCell>
                <mxCell id="TCJBprTSWfQyW1QQgeVR-2" value="Get the user&#39;s email to link to hashmap" style="whiteSpace=wrap;html=1;strokeWidth=2;" parent="1" vertex="1">
                    <mxGeometry x="130" y="340" width="120" height="60" as="geometry"/>
                </mxCell>
                <mxCell id="TCJBprTSWfQyW1QQgeVR-7" value="" style="edgeStyle=none;html=1;" parent="1" source="TCJBprTSWfQyW1QQgeVR-4" target="TCJBprTSWfQyW1QQgeVR-6" edge="1">
                    <mxGeometry relative="1" as="geometry"/>
                </mxCell>
                <mxCell id="TCJBprTSWfQyW1QQgeVR-4" value="Look up record in hashmapDetails.csv" style="whiteSpace=wrap;html=1;strokeWidth=2;" parent="1" vertex="1">
                    <mxGeometry x="320" y="340" width="120" height="60" as="geometry"/>
                </mxCell>
                <mxCell id="TCJBprTSWfQyW1QQgeVR-9" value="" style="edgeStyle=none;html=1;" parent="1" source="TCJBprTSWfQyW1QQgeVR-6" target="TCJBprTSWfQyW1QQgeVR-8" edge="1">
                    <mxGeometry relative="1" as="geometry"/>
                </mxCell>
                <mxCell id="TCJBprTSWfQyW1QQgeVR-11" value="" style="edgeStyle=none;html=1;" parent="1" source="TCJBprTSWfQyW1QQgeVR-6" target="TCJBprTSWfQyW1QQgeVR-10" edge="1">
                    <mxGeometry relative="1" as="geometry"/>
                </mxCell>
                <mxCell id="v75U_beLVAUJgUzom7p--9" value="" style="edgeStyle=none;html=1;" parent="1" source="TCJBprTSWfQyW1QQgeVR-8" target="v75U_beLVAUJgUzom7p--8" edge="1">
                    <mxGeometry relative="1" as="geometry"/>
                </mxCell>
                <mxCell id="TCJBprTSWfQyW1QQgeVR-8" value="Assign a key in hashmap.&amp;nbsp;" style="whiteSpace=wrap;html=1;strokeWidth=2;" parent="1" vertex="1">
                    <mxGeometry x="685" y="490" width="120" height="60" as="geometry"/>
                </mxCell>
                <mxCell id="v75U_beLVAUJgUzom7p--7" value="" style="edgeStyle=none;html=1;" parent="1" source="TCJBprTSWfQyW1QQgeVR-10" target="v75U_beLVAUJgUzom7p--6" edge="1">
                    <mxGeometry relative="1" as="geometry"/>
                </mxCell>
                <mxCell id="TCJBprTSWfQyW1QQgeVR-10" value="Go to the key which holds the user&#39;s email" style="whiteSpace=wrap;html=1;strokeWidth=2;" parent="1" vertex="1">
                    <mxGeometry x="950" y="340" width="120" height="60" as="geometry"/>
                </mxCell>
                <mxCell id="TCJBprTSWfQyW1QQgeVR-12" value="NO" style="text;html=1;align=center;verticalAlign=middle;resizable=0;points=[];autosize=1;strokeColor=none;fillColor=none;" parent="1" vertex="1">
                    <mxGeometry x="700" y="438" width="40" height="30" as="geometry"/>
                </mxCell>
                <mxCell id="v75U_beLVAUJgUzom7p--2" value="&lt;font style=&quot;font-size: 18px;&quot;&gt;Use a hashmap/linked list for this operation&lt;/font&gt;" style="text;html=1;align=center;verticalAlign=middle;resizable=0;points=[];autosize=1;strokeColor=none;fillColor=none;" parent="1" vertex="1">
                    <mxGeometry x="560" y="60" width="370" height="40" as="geometry"/>
                </mxCell>
                <mxCell id="v75U_beLVAUJgUzom7p--5" value="" style="edgeStyle=none;html=1;entryX=0.5;entryY=0;entryDx=0;entryDy=0;entryPerimeter=0;" parent="1" source="v75U_beLVAUJgUzom7p--3" target="v75U_beLVAUJgUzom7p--76" edge="1">
                    <mxGeometry relative="1" as="geometry">
                        <mxPoint x="583.6842105263163" y="520" as="targetPoint"/>
                    </mxGeometry>
                </mxCell>
                <mxCell id="v75U_beLVAUJgUzom7p--3" value="Create an object in the format below" style="whiteSpace=wrap;html=1;" parent="1" vertex="1">
                    <mxGeometry x="500" y="340" width="120" height="60" as="geometry"/>
                </mxCell>
                <mxCell id="v75U_beLVAUJgUzom7p--83" value="" style="edgeStyle=none;html=1;" parent="1" source="v75U_beLVAUJgUzom7p--6" target="v75U_beLVAUJgUzom7p--82" edge="1">
                    <mxGeometry relative="1" as="geometry"/>
                </mxCell>
                <mxCell id="v75U_beLVAUJgUzom7p--6" value="Since at least 1 transaction made, chain recent transaction to back of LL - use object made" style="whiteSpace=wrap;html=1;strokeWidth=2;" parent="1" vertex="1">
                    <mxGeometry x="1210" y="330" width="140" height="80" as="geometry"/>
                </mxCell>
                <mxCell id="v75U_beLVAUJgUzom7p--16" value="" style="edgeStyle=none;html=1;" parent="1" source="v75U_beLVAUJgUzom7p--8" target="v75U_beLVAUJgUzom7p--15" edge="1">
                    <mxGeometry relative="1" as="geometry"/>
                </mxCell>
                <mxCell id="v75U_beLVAUJgUzom7p--8" value="Push the user&#39;s object to the front of the LL" style="whiteSpace=wrap;html=1;strokeWidth=2;" parent="1" vertex="1">
                    <mxGeometry x="960" y="490" width="120" height="60" as="geometry"/>
                </mxCell>
                <mxCell id="v75U_beLVAUJgUzom7p--14" value="" style="group" parent="1" vertex="1" connectable="0">
                    <mxGeometry x="690" y="110" width="200" height="310" as="geometry"/>
                </mxCell>
                <mxCell id="TCJBprTSWfQyW1QQgeVR-6" value="Does user have a key in hashmap?" style="rhombus;whiteSpace=wrap;html=1;strokeWidth=2;" parent="v75U_beLVAUJgUzom7p--14" vertex="1">
                    <mxGeometry y="210" width="110" height="100" as="geometry"/>
                </mxCell>
                <mxCell id="TCJBprTSWfQyW1QQgeVR-13" value="YES" style="text;html=1;align=center;verticalAlign=middle;resizable=0;points=[];autosize=1;strokeColor=none;fillColor=none;" parent="v75U_beLVAUJgUzom7p--14" vertex="1">
                    <mxGeometry x="150" y="230" width="50" height="30" as="geometry"/>
                </mxCell>
                <mxCell id="v75U_beLVAUJgUzom7p--1" value="" style="shape=singleArrow;direction=south;whiteSpace=wrap;html=1;" parent="v75U_beLVAUJgUzom7p--14" vertex="1">
                    <mxGeometry x="25" width="60" height="190" as="geometry"/>
                </mxCell>
                <mxCell id="v75U_beLVAUJgUzom7p--18" value="" style="edgeStyle=none;html=1;" parent="1" source="v75U_beLVAUJgUzom7p--15" target="v75U_beLVAUJgUzom7p--34" edge="1">
                    <mxGeometry relative="1" as="geometry">
                        <mxPoint x="1159.9957142857143" y="557.1457142857143" as="sourcePoint"/>
                        <mxPoint x="1165" y="650" as="targetPoint"/>
                    </mxGeometry>
                </mxCell>
                <mxCell id="v75U_beLVAUJgUzom7p--22" value="" style="edgeStyle=none;html=1;" parent="1" source="v75U_beLVAUJgUzom7p--15" target="v75U_beLVAUJgUzom7p--21" edge="1">
                    <mxGeometry relative="1" as="geometry"/>
                </mxCell>
                <mxCell id="v75U_beLVAUJgUzom7p--15" value="Check addition was successful" style="rhombus;whiteSpace=wrap;html=1;strokeWidth=2;" parent="1" vertex="1">
                    <mxGeometry x="1120" y="475" width="90" height="90" as="geometry"/>
                </mxCell>
                <mxCell id="v75U_beLVAUJgUzom7p--19" value="NO" style="text;html=1;align=center;verticalAlign=middle;resizable=0;points=[];autosize=1;strokeColor=none;fillColor=none;" parent="1" vertex="1">
                    <mxGeometry x="1160" y="640" width="40" height="30" as="geometry"/>
                </mxCell>
                <mxCell id="v75U_beLVAUJgUzom7p--25" value="" style="edgeStyle=none;html=1;" parent="1" source="v75U_beLVAUJgUzom7p--21" target="v75U_beLVAUJgUzom7p--24" edge="1">
                    <mxGeometry relative="1" as="geometry"/>
                </mxCell>
                <mxCell id="v75U_beLVAUJgUzom7p--48" value="" style="edgeStyle=none;html=1;" parent="1" source="v75U_beLVAUJgUzom7p--21" target="v75U_beLVAUJgUzom7p--47" edge="1">
                    <mxGeometry relative="1" as="geometry"/>
                </mxCell>
                <mxCell id="v75U_beLVAUJgUzom7p--21" value="Create the key for the hashmap + email and save to this object" style="whiteSpace=wrap;html=1;strokeWidth=2;" parent="1" vertex="1">
                    <mxGeometry x="1275" y="490" width="120" height="60" as="geometry"/>
                </mxCell>
                <mxCell id="v75U_beLVAUJgUzom7p--50" value="" style="edgeStyle=none;html=1;" parent="1" source="v75U_beLVAUJgUzom7p--24" target="v75U_beLVAUJgUzom7p--49" edge="1">
                    <mxGeometry relative="1" as="geometry"/>
                </mxCell>
                <mxCell id="v75U_beLVAUJgUzom7p--24" value="Create a variable to point to the last element in the LL (If one exists increment by 1)" style="whiteSpace=wrap;html=1;strokeWidth=2;" parent="1" vertex="1">
                    <mxGeometry x="1450" y="478" width="140" height="82" as="geometry"/>
                </mxCell>
                <mxCell id="v75U_beLVAUJgUzom7p--31" value="" style="edgeStyle=none;html=1;" parent="1" source="v75U_beLVAUJgUzom7p--27" target="v75U_beLVAUJgUzom7p--30" edge="1">
                    <mxGeometry relative="1" as="geometry"/>
                </mxCell>
                <mxCell id="v75U_beLVAUJgUzom7p--27" value="Was there a collision?" style="rhombus;whiteSpace=wrap;html=1;strokeWidth=2;" parent="1" vertex="1">
                    <mxGeometry x="830" y="475" width="90" height="90" as="geometry"/>
                </mxCell>
                <mxCell id="v75U_beLVAUJgUzom7p--29" value="NO" style="text;html=1;align=center;verticalAlign=middle;resizable=0;points=[];autosize=1;strokeColor=none;fillColor=none;" parent="1" vertex="1">
                    <mxGeometry x="910" y="490" width="40" height="30" as="geometry"/>
                </mxCell>
                <mxCell id="v75U_beLVAUJgUzom7p--30" value="Try to rehash to a unique value" style="whiteSpace=wrap;html=1;strokeWidth=2;" parent="1" vertex="1">
                    <mxGeometry x="815" y="660" width="120" height="60" as="geometry"/>
                </mxCell>
                <mxCell id="v75U_beLVAUJgUzom7p--32" value="YES" style="text;html=1;align=center;verticalAlign=middle;resizable=0;points=[];autosize=1;strokeColor=none;fillColor=none;" parent="1" vertex="1">
                    <mxGeometry x="870" y="600" width="50" height="30" as="geometry"/>
                </mxCell>
                <mxCell id="v75U_beLVAUJgUzom7p--33" style="edgeStyle=none;html=1;entryX=0.563;entryY=0.998;entryDx=0;entryDy=0;entryPerimeter=0;" parent="1" source="v75U_beLVAUJgUzom7p--30" target="TCJBprTSWfQyW1QQgeVR-8" edge="1">
                    <mxGeometry relative="1" as="geometry"/>
                </mxCell>
                <mxCell id="v75U_beLVAUJgUzom7p--36" value="" style="edgeStyle=none;html=1;" parent="1" source="v75U_beLVAUJgUzom7p--34" target="v75U_beLVAUJgUzom7p--35" edge="1">
                    <mxGeometry relative="1" as="geometry"/>
                </mxCell>
                <mxCell id="v75U_beLVAUJgUzom7p--40" value="" style="edgeStyle=none;html=1;" parent="1" source="v75U_beLVAUJgUzom7p--34" target="v75U_beLVAUJgUzom7p--39" edge="1">
                    <mxGeometry relative="1" as="geometry"/>
                </mxCell>
                <mxCell id="v75U_beLVAUJgUzom7p--34" value="Has LL been intialised?" style="rhombus;whiteSpace=wrap;html=1;strokeWidth=2;" parent="1" vertex="1">
                    <mxGeometry x="1120" y="710" width="90" height="90" as="geometry"/>
                </mxCell>
                <mxCell id="v75U_beLVAUJgUzom7p--38" style="edgeStyle=none;html=1;" parent="1" source="v75U_beLVAUJgUzom7p--35" target="v75U_beLVAUJgUzom7p--8" edge="1">
                    <mxGeometry relative="1" as="geometry"/>
                </mxCell>
                <mxCell id="v75U_beLVAUJgUzom7p--35" value="Try to add the object to the LL again&amp;nbsp;" style="whiteSpace=wrap;html=1;strokeWidth=2;" parent="1" vertex="1">
                    <mxGeometry x="1105" y="950" width="120" height="60" as="geometry"/>
                </mxCell>
                <mxCell id="v75U_beLVAUJgUzom7p--37" value="YES" style="text;html=1;align=center;verticalAlign=middle;resizable=0;points=[];autosize=1;strokeColor=none;fillColor=none;" parent="1" vertex="1">
                    <mxGeometry x="1160" y="830" width="50" height="30" as="geometry"/>
                </mxCell>
                <mxCell id="v75U_beLVAUJgUzom7p--39" value="Create another LL under the same hash key" style="whiteSpace=wrap;html=1;strokeWidth=2;" parent="1" vertex="1">
                    <mxGeometry x="1275" y="725" width="120" height="60" as="geometry"/>
                </mxCell>
                <mxCell id="v75U_beLVAUJgUzom7p--41" value="NO" style="text;html=1;align=center;verticalAlign=middle;resizable=0;points=[];autosize=1;strokeColor=none;fillColor=none;" parent="1" vertex="1">
                    <mxGeometry x="1220" y="720" width="40" height="30" as="geometry"/>
                </mxCell>
                <mxCell id="v75U_beLVAUJgUzom7p--42" style="edgeStyle=none;html=1;" parent="1" source="v75U_beLVAUJgUzom7p--39" target="v75U_beLVAUJgUzom7p--35" edge="1">
                    <mxGeometry relative="1" as="geometry">
                        <mxPoint x="1240" y="830" as="targetPoint"/>
                    </mxGeometry>
                </mxCell>
                <mxCell id="v75U_beLVAUJgUzom7p--45" value="YES" style="text;html=1;align=center;verticalAlign=middle;resizable=0;points=[];autosize=1;strokeColor=none;fillColor=none;" parent="1" vertex="1">
                    <mxGeometry x="1205" y="488" width="50" height="30" as="geometry"/>
                </mxCell>
                <mxCell id="v75U_beLVAUJgUzom7p--47" value="&lt;font style=&quot;font-size: 14px;&quot;&gt;HashKey; Email&lt;/font&gt;" style="points=[[0.25,0,0],[0.5,0,0],[0.75,0,0],[1,0.25,0],[1,0.5,0],[1,0.75,0],[0.75,1,0],[0.5,1,0],[0.25,1,0],[0,0.75,0],[0,0.5,0],[0,0.25,0]];rounded=1;dashed=1;dashPattern=5 2 1 2;labelPosition=center;verticalLabelPosition=middle;align=center;verticalAlign=middle;fontSize=8;html=1;whiteSpace=wrap;" parent="1" vertex="1">
                    <mxGeometry x="1262.5" y="600" width="145" height="80" as="geometry"/>
                </mxCell>
                <mxCell id="v75U_beLVAUJgUzom7p--52" value="" style="edgeStyle=none;html=1;" parent="1" source="v75U_beLVAUJgUzom7p--49" target="v75U_beLVAUJgUzom7p--51" edge="1">
                    <mxGeometry relative="1" as="geometry"/>
                </mxCell>
                <mxCell id="v75U_beLVAUJgUzom7p--71" style="edgeStyle=none;html=1;" parent="1" source="v75U_beLVAUJgUzom7p--49" target="v75U_beLVAUJgUzom7p--58" edge="1">
                    <mxGeometry relative="1" as="geometry"/>
                </mxCell>
                <mxCell id="v75U_beLVAUJgUzom7p--49" value="Save these into a hashmapDetails.csv file" style="whiteSpace=wrap;html=1;strokeWidth=2;" parent="1" vertex="1">
                    <mxGeometry x="1650" y="488" width="120" height="60" as="geometry"/>
                </mxCell>
                <mxCell id="v75U_beLVAUJgUzom7p--54" value="" style="edgeStyle=none;html=1;" parent="1" source="v75U_beLVAUJgUzom7p--51" target="v75U_beLVAUJgUzom7p--53" edge="1">
                    <mxGeometry relative="1" as="geometry"/>
                </mxCell>
                <mxCell id="v75U_beLVAUJgUzom7p--51" value="Return a message indicating success" style="whiteSpace=wrap;html=1;strokeWidth=2;" parent="1" vertex="1">
                    <mxGeometry x="1840" y="488" width="120" height="60" as="geometry"/>
                </mxCell>
                <mxCell id="v75U_beLVAUJgUzom7p--53" value="END" style="ellipse;whiteSpace=wrap;html=1;strokeWidth=2;" parent="1" vertex="1">
                    <mxGeometry x="2030" y="478" width="80" height="80" as="geometry"/>
                </mxCell>
                <mxCell id="v75U_beLVAUJgUzom7p--75" value="" style="group" parent="1" vertex="1" connectable="0">
                    <mxGeometry x="450" y="470" width="240" height="250" as="geometry"/>
                </mxCell>
                <mxCell id="v75U_beLVAUJgUzom7p--76" value="&lt;font style=&quot;font-size: 14px;&quot;&gt;Email; Operation; Old Balance; New Balance&lt;/font&gt;" style="points=[[0.25,0,0],[0.5,0,0],[0.75,0,0],[1,0.25,0],[1,0.5,0],[1,0.75,0],[0.75,1,0],[0.5,1,0],[0.25,1,0],[0,0.75,0],[0,0.5,0],[0,0.25,0]];rounded=1;dashed=1;dashPattern=5 2 1 2;labelPosition=center;verticalLabelPosition=middle;align=center;verticalAlign=middle;fontSize=8;html=1;whiteSpace=wrap;" parent="v75U_beLVAUJgUzom7p--75" vertex="1">
                    <mxGeometry x="40" width="140" height="80" as="geometry"/>
                </mxCell>
                <mxCell id="v75U_beLVAUJgUzom7p--77" value="" style="shape=singleArrow;direction=north;whiteSpace=wrap;html=1;" parent="v75U_beLVAUJgUzom7p--75" vertex="1">
                    <mxGeometry x="80" y="80" width="60" height="100" as="geometry"/>
                </mxCell>
                <mxCell id="v75U_beLVAUJgUzom7p--78" value="&lt;font style=&quot;font-size: 24px;&quot;&gt;Transaction Object&lt;/font&gt;" style="text;html=1;align=center;verticalAlign=middle;resizable=0;points=[];autosize=1;strokeColor=none;fillColor=none;" parent="v75U_beLVAUJgUzom7p--75" vertex="1">
                    <mxGeometry y="180" width="220" height="40" as="geometry"/>
                </mxCell>
                <mxCell id="v75U_beLVAUJgUzom7p--80" value="&lt;font style=&quot;font-size: 16px;&quot;&gt;In this case, the hash key would be 346 and the size of the list would be 16 (accounting list indexes start at 0)&lt;/font&gt;" style="text;html=1;align=center;verticalAlign=middle;resizable=0;points=[];autosize=1;strokeColor=none;fillColor=none;" parent="1" vertex="1">
                    <mxGeometry x="1320" y="945" width="800" height="30" as="geometry"/>
                </mxCell>
                <mxCell id="v75U_beLVAUJgUzom7p--81" value="" style="group" parent="1" vertex="1" connectable="0">
                    <mxGeometry x="1565" y="610" width="290" height="320" as="geometry"/>
                </mxCell>
                <mxCell id="v75U_beLVAUJgUzom7p--74" value="" style="edgeStyle=none;html=1;" parent="v75U_beLVAUJgUzom7p--81" source="v75U_beLVAUJgUzom7p--58" target="v75U_beLVAUJgUzom7p--73" edge="1">
                    <mxGeometry relative="1" as="geometry"/>
                </mxCell>
                <mxCell id="v75U_beLVAUJgUzom7p--58" value="Table" style="shape=table;startSize=30;container=1;collapsible=1;childLayout=tableLayout;fixedRows=1;rowLines=0;fontStyle=1;align=center;resizeLast=1;html=1;" parent="v75U_beLVAUJgUzom7p--81" vertex="1">
                    <mxGeometry x="55" width="180" height="130" as="geometry"/>
                </mxCell>
                <mxCell id="v75U_beLVAUJgUzom7p--59" value="" style="shape=tableRow;horizontal=0;startSize=0;swimlaneHead=0;swimlaneBody=0;fillColor=none;collapsible=0;dropTarget=0;points=[[0,0.5],[1,0.5]];portConstraint=eastwest;top=0;left=0;right=0;bottom=1;" parent="v75U_beLVAUJgUzom7p--58" vertex="1">
                    <mxGeometry y="30" width="180" height="30" as="geometry"/>
                </mxCell>
                <mxCell id="v75U_beLVAUJgUzom7p--60" value="PK" style="shape=partialRectangle;connectable=0;fillColor=none;top=0;left=0;bottom=0;right=0;fontStyle=1;overflow=hidden;whiteSpace=wrap;html=1;" parent="v75U_beLVAUJgUzom7p--59" vertex="1">
                    <mxGeometry width="30" height="30" as="geometry">
                        <mxRectangle width="30" height="30" as="alternateBounds"/>
                    </mxGeometry>
                </mxCell>
                <mxCell id="v75U_beLVAUJgUzom7p--61" value="HashKey" style="shape=partialRectangle;connectable=0;fillColor=none;top=0;left=0;bottom=0;right=0;align=left;spacingLeft=6;fontStyle=5;overflow=hidden;whiteSpace=wrap;html=1;" parent="v75U_beLVAUJgUzom7p--59" vertex="1">
                    <mxGeometry x="30" width="150" height="30" as="geometry">
                        <mxRectangle width="150" height="30" as="alternateBounds"/>
                    </mxGeometry>
                </mxCell>
                <mxCell id="v75U_beLVAUJgUzom7p--62" value="" style="shape=tableRow;horizontal=0;startSize=0;swimlaneHead=0;swimlaneBody=0;fillColor=none;collapsible=0;dropTarget=0;points=[[0,0.5],[1,0.5]];portConstraint=eastwest;top=0;left=0;right=0;bottom=0;" parent="v75U_beLVAUJgUzom7p--58" vertex="1">
                    <mxGeometry y="60" width="180" height="30" as="geometry"/>
                </mxCell>
                <mxCell id="v75U_beLVAUJgUzom7p--63" value="" style="shape=partialRectangle;connectable=0;fillColor=none;top=0;left=0;bottom=0;right=0;editable=1;overflow=hidden;whiteSpace=wrap;html=1;" parent="v75U_beLVAUJgUzom7p--62" vertex="1">
                    <mxGeometry width="30" height="30" as="geometry">
                        <mxRectangle width="30" height="30" as="alternateBounds"/>
                    </mxGeometry>
                </mxCell>
                <mxCell id="v75U_beLVAUJgUzom7p--64" value="Email: String" style="shape=partialRectangle;connectable=0;fillColor=none;top=0;left=0;bottom=0;right=0;align=left;spacingLeft=6;overflow=hidden;whiteSpace=wrap;html=1;" parent="v75U_beLVAUJgUzom7p--62" vertex="1">
                    <mxGeometry x="30" width="150" height="30" as="geometry">
                        <mxRectangle width="150" height="30" as="alternateBounds"/>
                    </mxGeometry>
                </mxCell>
                <mxCell id="v75U_beLVAUJgUzom7p--65" value="" style="shape=tableRow;horizontal=0;startSize=0;swimlaneHead=0;swimlaneBody=0;fillColor=none;collapsible=0;dropTarget=0;points=[[0,0.5],[1,0.5]];portConstraint=eastwest;top=0;left=0;right=0;bottom=0;" parent="v75U_beLVAUJgUzom7p--58" vertex="1">
                    <mxGeometry y="90" width="180" height="30" as="geometry"/>
                </mxCell>
                <mxCell id="v75U_beLVAUJgUzom7p--66" value="" style="shape=partialRectangle;connectable=0;fillColor=none;top=0;left=0;bottom=0;right=0;editable=1;overflow=hidden;whiteSpace=wrap;html=1;" parent="v75U_beLVAUJgUzom7p--65" vertex="1">
                    <mxGeometry width="30" height="30" as="geometry">
                        <mxRectangle width="30" height="30" as="alternateBounds"/>
                    </mxGeometry>
                </mxCell>
                <mxCell id="v75U_beLVAUJgUzom7p--67" value="BackOfList: String (number value)" style="shape=partialRectangle;connectable=0;fillColor=none;top=0;left=0;bottom=0;right=0;align=left;spacingLeft=6;overflow=hidden;whiteSpace=wrap;html=1;" parent="v75U_beLVAUJgUzom7p--65" vertex="1">
                    <mxGeometry x="30" width="150" height="30" as="geometry">
                        <mxRectangle width="150" height="30" as="alternateBounds"/>
                    </mxGeometry>
                </mxCell>
                <mxCell id="v75U_beLVAUJgUzom7p--72" value="Details" style="fillColor=none;strokeColor=none;html=1;fontSize=11;fontStyle=0;align=left;fontColor=#596780;fontStyle=1;fontSize=11" parent="v75U_beLVAUJgUzom7p--81" vertex="1">
                    <mxGeometry x="15" y="150" width="240" height="20" as="geometry"/>
                </mxCell>
                <mxCell id="v75U_beLVAUJgUzom7p--73" value="E.g. 346, test@example.com, 15" style="rounded=1;arcSize=9;fillColor=#F7F8F9;align=left;spacingLeft=5;strokeColor=#DEE1E6;html=1;strokeWidth=2;fontColor=#596780;fontSize=12" parent="v75U_beLVAUJgUzom7p--81" vertex="1">
                    <mxGeometry y="180" width="290" height="40" as="geometry"/>
                </mxCell>
                <mxCell id="v75U_beLVAUJgUzom7p--79" value="" style="shape=singleArrow;direction=north;whiteSpace=wrap;html=1;" parent="v75U_beLVAUJgUzom7p--81" vertex="1">
                    <mxGeometry x="115" y="220" width="60" height="100" as="geometry"/>
                </mxCell>
                <mxCell id="v75U_beLVAUJgUzom7p--85" value="" style="edgeStyle=none;html=1;" parent="1" source="v75U_beLVAUJgUzom7p--82" target="v75U_beLVAUJgUzom7p--84" edge="1">
                    <mxGeometry relative="1" as="geometry"/>
                </mxCell>
                <mxCell id="v75U_beLVAUJgUzom7p--82" value="Increment back pointer" style="whiteSpace=wrap;html=1;strokeWidth=2;" parent="1" vertex="1">
                    <mxGeometry x="1520" y="340" width="120" height="60" as="geometry"/>
                </mxCell>
                <mxCell id="v75U_beLVAUJgUzom7p--86" value="" style="edgeStyle=none;html=1;" parent="1" source="v75U_beLVAUJgUzom7p--84" target="v75U_beLVAUJgUzom7p--51" edge="1">
                    <mxGeometry relative="1" as="geometry"/>
                </mxCell>
                <mxCell id="v75U_beLVAUJgUzom7p--84" value="update hashmapDetails.csv with new back pointer" style="whiteSpace=wrap;html=1;strokeWidth=2;" parent="1" vertex="1">
                    <mxGeometry x="1840" y="340" width="120" height="60" as="geometry"/>
                </mxCell>
                <mxCell id="IeH4fTpclftMMMNgq68D-1" value="Load hashmap from csv file" style="text;html=1;align=center;verticalAlign=middle;resizable=0;points=[];autosize=1;strokeColor=none;fillColor=none;" parent="1" vertex="1">
                    <mxGeometry x="200" y="408" width="170" height="30" as="geometry"/>
                </mxCell>
            </root>
        </mxGraphModel>
    </diagram>
    <diagram id="y4zahe1xSKbDy0wVj_Nz" name="Email verification">
        <mxGraphModel dx="2009" dy="602" grid="1" gridSize="10" guides="1" tooltips="1" connect="1" arrows="1" fold="1" page="1" pageScale="1" pageWidth="850" pageHeight="1100" math="0" shadow="0">
            <root>
                <mxCell id="0"/>
                <mxCell id="1" parent="0"/>
                <mxCell id="KohlebrfGigfqUa445Yk-3" value="" style="edgeStyle=none;html=1;" parent="1" source="3jXYm85gjEg3sEVa-5EG-4" target="KohlebrfGigfqUa445Yk-2" edge="1">
                    <mxGeometry relative="1" as="geometry"/>
                </mxCell>
                <mxCell id="KohlebrfGigfqUa445Yk-1" value="Start - User has withdrawn some money" style="strokeWidth=2;html=1;shape=mxgraph.flowchart.start_2;whiteSpace=wrap;" parent="1" vertex="1">
                    <mxGeometry x="30" y="310" width="100" height="100" as="geometry"/>
                </mxCell>
                <mxCell id="3jXYm85gjEg3sEVa-5EG-2" value="" style="edgeStyle=none;html=1;" parent="1" source="KohlebrfGigfqUa445Yk-2" target="3jXYm85gjEg3sEVa-5EG-1" edge="1">
                    <mxGeometry relative="1" as="geometry"/>
                </mxCell>
                <mxCell id="KohlebrfGigfqUa445Yk-2" value="Get the UserID that withdrew money" style="whiteSpace=wrap;html=1;strokeWidth=2;" parent="1" vertex="1">
                    <mxGeometry x="320" y="330" width="155" height="60" as="geometry"/>
                </mxCell>
                <mxCell id="3jXYm85gjEg3sEVa-5EG-9" value="" style="edgeStyle=none;html=1;" parent="1" source="3jXYm85gjEg3sEVa-5EG-1" target="3jXYm85gjEg3sEVa-5EG-8" edge="1">
                    <mxGeometry relative="1" as="geometry"/>
                </mxCell>
                <mxCell id="3jXYm85gjEg3sEVa-5EG-1" value="Look up the email address based off the UserID" style="whiteSpace=wrap;html=1;strokeWidth=2;" parent="1" vertex="1">
                    <mxGeometry x="530" y="330" width="120" height="60" as="geometry"/>
                </mxCell>
                <mxCell id="3jXYm85gjEg3sEVa-5EG-6" value="" style="edgeStyle=none;html=1;" parent="1" source="KohlebrfGigfqUa445Yk-1" target="3jXYm85gjEg3sEVa-5EG-4" edge="1">
                    <mxGeometry relative="1" as="geometry">
                        <mxPoint x="130" y="360" as="sourcePoint"/>
                        <mxPoint x="320" y="360" as="targetPoint"/>
                    </mxGeometry>
                </mxCell>
                <mxCell id="3jXYm85gjEg3sEVa-5EG-4" value="Is withdrawal &amp;gt; 100?" style="rhombus;whiteSpace=wrap;html=1;" parent="1" vertex="1">
                    <mxGeometry x="170" y="315" width="100" height="90" as="geometry"/>
                </mxCell>
                <mxCell id="3jXYm85gjEg3sEVa-5EG-7" value="YES" style="text;html=1;align=center;verticalAlign=middle;resizable=0;points=[];autosize=1;strokeColor=none;fillColor=none;" parent="1" vertex="1">
                    <mxGeometry x="265" y="330" width="50" height="30" as="geometry"/>
                </mxCell>
                <mxCell id="3jXYm85gjEg3sEVa-5EG-11" value="" style="edgeStyle=none;html=1;" parent="1" source="3jXYm85gjEg3sEVa-5EG-8" target="3jXYm85gjEg3sEVa-5EG-10" edge="1">
                    <mxGeometry relative="1" as="geometry"/>
                </mxCell>
                <mxCell id="3jXYm85gjEg3sEVa-5EG-8" value="Configure the mail host + session" style="whiteSpace=wrap;html=1;strokeWidth=2;" parent="1" vertex="1">
                    <mxGeometry x="730" y="330" width="120" height="60" as="geometry"/>
                </mxCell>
                <mxCell id="3jXYm85gjEg3sEVa-5EG-13" value="" style="edgeStyle=none;html=1;" parent="1" source="3jXYm85gjEg3sEVa-5EG-10" target="3jXYm85gjEg3sEVa-5EG-12" edge="1">
                    <mxGeometry relative="1" as="geometry"/>
                </mxCell>
                <mxCell id="3jXYm85gjEg3sEVa-5EG-15" value="" style="edgeStyle=none;html=1;" parent="1" source="3jXYm85gjEg3sEVa-5EG-10" target="3jXYm85gjEg3sEVa-5EG-14" edge="1">
                    <mxGeometry relative="1" as="geometry"/>
                </mxCell>
                <mxCell id="3jXYm85gjEg3sEVa-5EG-10" value="Use this message framwork to send email" style="whiteSpace=wrap;html=1;strokeWidth=2;" parent="1" vertex="1">
                    <mxGeometry x="920" y="330" width="120" height="60" as="geometry"/>
                </mxCell>
                <mxCell id="3jXYm85gjEg3sEVa-5EG-12" value="Hello {first name},&lt;div&gt;&lt;br&gt;&lt;/div&gt;&lt;div&gt;A figure of {amountWithdrawn} has been withdrawn from your account. If this was not you, please report it as supsicious below.&lt;/div&gt;&lt;div&gt;&lt;br&gt;&lt;/div&gt;&lt;div&gt;Thanks.&lt;/div&gt;&lt;div&gt;FinCore CLI&lt;/div&gt;" style="ellipse;shape=cloud;whiteSpace=wrap;html=1;strokeWidth=2;" parent="1" vertex="1">
                    <mxGeometry x="832.5" y="470" width="295" height="190" as="geometry"/>
                </mxCell>
                <mxCell id="3jXYm85gjEg3sEVa-5EG-17" value="" style="edgeStyle=none;html=1;" parent="1" target="RvuwJSLZzn9Xrq6sS_22-1" edge="1">
                    <mxGeometry relative="1" as="geometry">
                        <mxPoint x="1182.3487951807228" y="310.00433734939764" as="sourcePoint"/>
                        <mxPoint x="1180" y="230" as="targetPoint"/>
                    </mxGeometry>
                </mxCell>
                <mxCell id="b3WRMtEVOwYQ5xL4mQ0L-2" value="" style="edgeStyle=none;html=1;" parent="1" source="3jXYm85gjEg3sEVa-5EG-14" target="b3WRMtEVOwYQ5xL4mQ0L-1" edge="1">
                    <mxGeometry relative="1" as="geometry"/>
                </mxCell>
                <mxCell id="3jXYm85gjEg3sEVa-5EG-14" value="Was email sent" style="rhombus;whiteSpace=wrap;html=1;strokeWidth=2;" parent="1" vertex="1">
                    <mxGeometry x="1120" y="310" width="120" height="100" as="geometry"/>
                </mxCell>
                <mxCell id="3jXYm85gjEg3sEVa-5EG-18" value="" style="edgeStyle=none;html=1;" parent="1" source="3jXYm85gjEg3sEVa-5EG-16" target="3jXYm85gjEg3sEVa-5EG-10" edge="1">
                    <mxGeometry relative="1" as="geometry"/>
                </mxCell>
                <mxCell id="3jXYm85gjEg3sEVa-5EG-16" value="Try to send the email again" style="whiteSpace=wrap;html=1;strokeWidth=2;" parent="1" vertex="1">
                    <mxGeometry x="920" y="170" width="120" height="60" as="geometry"/>
                </mxCell>
                <mxCell id="3jXYm85gjEg3sEVa-5EG-19" value="NO" style="text;html=1;align=center;verticalAlign=middle;resizable=0;points=[];autosize=1;strokeColor=none;fillColor=none;" parent="1" vertex="1">
                    <mxGeometry x="1210" y="248" width="40" height="30" as="geometry"/>
                </mxCell>
                <mxCell id="_tYb1IvQm6eODKTwQcI8-2" value="" style="edgeStyle=none;html=1;" parent="1" source="b3WRMtEVOwYQ5xL4mQ0L-1" target="_tYb1IvQm6eODKTwQcI8-1" edge="1">
                    <mxGeometry relative="1" as="geometry"/>
                </mxCell>
                <mxCell id="b3WRMtEVOwYQ5xL4mQ0L-1" value="Display a message to tell the user to check their inbox" style="whiteSpace=wrap;html=1;strokeWidth=2;" parent="1" vertex="1">
                    <mxGeometry x="1330" y="330" width="120" height="60" as="geometry"/>
                </mxCell>
                <mxCell id="b3WRMtEVOwYQ5xL4mQ0L-3" value="YES" style="text;html=1;align=center;verticalAlign=middle;resizable=0;points=[];autosize=1;strokeColor=none;fillColor=none;" parent="1" vertex="1">
                    <mxGeometry x="1255" y="328" width="50" height="30" as="geometry"/>
                </mxCell>
                <mxCell id="RvuwJSLZzn9Xrq6sS_22-2" value="" style="edgeStyle=none;html=1;" parent="1" source="RvuwJSLZzn9Xrq6sS_22-1" target="3jXYm85gjEg3sEVa-5EG-16" edge="1">
                    <mxGeometry relative="1" as="geometry"/>
                </mxCell>
                <mxCell id="RvuwJSLZzn9Xrq6sS_22-1" value="Throw an error indicating email was not sent&amp;nbsp;" style="whiteSpace=wrap;html=1;strokeWidth=2;" parent="1" vertex="1">
                    <mxGeometry x="1120" y="170" width="120" height="60" as="geometry"/>
                </mxCell>
                <mxCell id="RvuwJSLZzn9Xrq6sS_22-3" value="" style="verticalLabelPosition=bottom;shadow=0;dashed=0;align=center;html=1;verticalAlign=top;strokeWidth=1;shape=mxgraph.mockup.markup.curlyBrace;whiteSpace=wrap;strokeColor=#999999;" parent="1" vertex="1">
                    <mxGeometry x="60" y="100" width="1530" height="20" as="geometry"/>
                </mxCell>
                <mxCell id="RvuwJSLZzn9Xrq6sS_22-4" value="&lt;font style=&quot;font-size: 24px;&quot;&gt;EMAIL BEING SENT&lt;/font&gt;" style="text;html=1;align=center;verticalAlign=middle;resizable=0;points=[];autosize=1;strokeColor=none;fillColor=none;" parent="1" vertex="1">
                    <mxGeometry x="700" y="60" width="250" height="40" as="geometry"/>
                </mxCell>
                <mxCell id="_tYb1IvQm6eODKTwQcI8-4" value="" style="edgeStyle=none;html=1;" parent="1" source="_tYb1IvQm6eODKTwQcI8-1" target="_tYb1IvQm6eODKTwQcI8-3" edge="1">
                    <mxGeometry relative="1" as="geometry"/>
                </mxCell>
                <mxCell id="_tYb1IvQm6eODKTwQcI8-1" value="END" style="ellipse;whiteSpace=wrap;html=1;strokeWidth=2;" parent="1" vertex="1">
                    <mxGeometry x="1550" y="320" width="80" height="80" as="geometry"/>
                </mxCell>
                <mxCell id="_tYb1IvQm6eODKTwQcI8-6" value="" style="edgeStyle=none;html=1;entryX=0;entryY=0.5;entryDx=0;entryDy=0;" parent="1" source="_tYb1IvQm6eODKTwQcI8-3" target="_tYb1IvQm6eODKTwQcI8-7" edge="1">
                    <mxGeometry relative="1" as="geometry">
                        <mxPoint x="1850" y="360" as="targetPoint"/>
                    </mxGeometry>
                </mxCell>
                <mxCell id="_tYb1IvQm6eODKTwQcI8-3" value="START" style="ellipse;whiteSpace=wrap;html=1;strokeWidth=2;" parent="1" vertex="1">
                    <mxGeometry x="1710" y="320" width="80" height="80" as="geometry"/>
                </mxCell>
                <mxCell id="_tYb1IvQm6eODKTwQcI8-14" value="" style="edgeStyle=none;html=1;" parent="1" source="_tYb1IvQm6eODKTwQcI8-7" edge="1">
                    <mxGeometry relative="1" as="geometry">
                        <mxPoint x="2140" y="360" as="targetPoint"/>
                    </mxGeometry>
                </mxCell>
                <mxCell id="_tYb1IvQm6eODKTwQcI8-7" value="User has now clicked the link" style="shape=parallelogram;perimeter=parallelogramPerimeter;whiteSpace=wrap;html=1;fixedSize=1;" parent="1" vertex="1">
                    <mxGeometry x="1860" y="315" width="200" height="90" as="geometry"/>
                </mxCell>
                <mxCell id="_tYb1IvQm6eODKTwQcI8-8" value="" style="endArrow=classic;html=1;entryX=0.5;entryY=0;entryDx=0;entryDy=0;" parent="1" target="_tYb1IvQm6eODKTwQcI8-10" edge="1">
                    <mxGeometry width="50" height="50" relative="1" as="geometry">
                        <mxPoint x="1490" y="360" as="sourcePoint"/>
                        <mxPoint x="1490" y="530" as="targetPoint"/>
                    </mxGeometry>
                </mxCell>
                <mxCell id="_tYb1IvQm6eODKTwQcI8-9" value="Storage of the email verifier" style="text;html=1;align=center;verticalAlign=middle;resizable=0;points=[];autosize=1;strokeColor=none;fillColor=none;" parent="1" vertex="1">
                    <mxGeometry x="1320" y="440" width="170" height="30" as="geometry"/>
                </mxCell>
                <mxCell id="Omx6OgspaeR46mFSoIdj-12" value="" style="edgeStyle=none;html=1;" parent="1" source="_tYb1IvQm6eODKTwQcI8-10" target="Omx6OgspaeR46mFSoIdj-11" edge="1">
                    <mxGeometry relative="1" as="geometry"/>
                </mxCell>
                <mxCell id="Omx6OgspaeR46mFSoIdj-25" value="" style="edgeStyle=none;html=1;" parent="1" source="_tYb1IvQm6eODKTwQcI8-10" target="Omx6OgspaeR46mFSoIdj-24" edge="1">
                    <mxGeometry relative="1" as="geometry"/>
                </mxCell>
                <mxCell id="_tYb1IvQm6eODKTwQcI8-10" value="TODO: Create a userVerifiation.csv file&lt;div&gt;&lt;br&gt;&lt;/div&gt;&lt;div&gt;In the userVerification.csv file, check if the user emai; already has an object.&amp;nbsp;&lt;/div&gt;" style="rounded=0;whiteSpace=wrap;html=1;" parent="1" vertex="1">
                    <mxGeometry x="1400" y="500" width="180" height="140" as="geometry"/>
                </mxCell>
                <mxCell id="_tYb1IvQm6eODKTwQcI8-16" value="" style="edgeStyle=none;html=1;" parent="1" source="_tYb1IvQm6eODKTwQcI8-15" target="_tYb1IvQm6eODKTwQcI8-7" edge="1">
                    <mxGeometry relative="1" as="geometry"/>
                </mxCell>
                <mxCell id="_tYb1IvQm6eODKTwQcI8-18" value="" style="edgeStyle=none;html=1;" parent="1" source="_tYb1IvQm6eODKTwQcI8-15" target="_tYb1IvQm6eODKTwQcI8-17" edge="1">
                    <mxGeometry relative="1" as="geometry"/>
                </mxCell>
                <mxCell id="_tYb1IvQm6eODKTwQcI8-15" value="User enters their username and password on the verification page" style="shape=parallelogram;perimeter=parallelogramPerimeter;whiteSpace=wrap;html=1;fixedSize=1;" parent="1" vertex="1">
                    <mxGeometry x="2125" y="315" width="200" height="90" as="geometry"/>
                </mxCell>
                <mxCell id="_tYb1IvQm6eODKTwQcI8-20" value="" style="edgeStyle=none;html=1;" parent="1" source="_tYb1IvQm6eODKTwQcI8-17" target="YB5d4Bs-l8yMtoOKALxF-4" edge="1">
                    <mxGeometry relative="1" as="geometry">
                        <mxPoint x="2447.5" y="550" as="targetPoint"/>
                    </mxGeometry>
                </mxCell>
                <mxCell id="Omx6OgspaeR46mFSoIdj-3" value="" style="edgeStyle=none;html=1;" parent="1" source="_tYb1IvQm6eODKTwQcI8-17" target="Omx6OgspaeR46mFSoIdj-2" edge="1">
                    <mxGeometry relative="1" as="geometry"/>
                </mxCell>
                <mxCell id="_tYb1IvQm6eODKTwQcI8-17" value="Do details match?" style="rhombus;whiteSpace=wrap;html=1;" parent="1" vertex="1">
                    <mxGeometry x="2380" y="300" width="135" height="120" as="geometry"/>
                </mxCell>
                <mxCell id="_tYb1IvQm6eODKTwQcI8-22" style="edgeStyle=none;html=1;entryX=0.5;entryY=1;entryDx=0;entryDy=0;" parent="1" source="_tYb1IvQm6eODKTwQcI8-19" target="_tYb1IvQm6eODKTwQcI8-15" edge="1">
                    <mxGeometry relative="1" as="geometry"/>
                </mxCell>
                <mxCell id="_tYb1IvQm6eODKTwQcI8-19" value="Throw an error indicating which credential was incorrect" style="whiteSpace=wrap;html=1;" parent="1" vertex="1">
                    <mxGeometry x="2160" y="625" width="120" height="60" as="geometry"/>
                </mxCell>
                <mxCell id="_tYb1IvQm6eODKTwQcI8-21" value="NO" style="text;html=1;align=center;verticalAlign=middle;resizable=0;points=[];autosize=1;strokeColor=none;fillColor=none;" parent="1" vertex="1">
                    <mxGeometry x="2450" y="500" width="40" height="30" as="geometry"/>
                </mxCell>
                <mxCell id="Omx6OgspaeR46mFSoIdj-1" value="Allow the user to try and verify again" style="text;html=1;align=center;verticalAlign=middle;resizable=0;points=[];autosize=1;strokeColor=none;fillColor=none;" parent="1" vertex="1">
                    <mxGeometry x="2000" y="448" width="220" height="30" as="geometry"/>
                </mxCell>
                <mxCell id="Omx6OgspaeR46mFSoIdj-6" value="" style="edgeStyle=none;html=1;" parent="1" source="Omx6OgspaeR46mFSoIdj-2" target="Omx6OgspaeR46mFSoIdj-5" edge="1">
                    <mxGeometry relative="1" as="geometry"/>
                </mxCell>
                <mxCell id="Omx6OgspaeR46mFSoIdj-8" value="" style="edgeStyle=none;html=1;" parent="1" source="Omx6OgspaeR46mFSoIdj-2" target="Omx6OgspaeR46mFSoIdj-7" edge="1">
                    <mxGeometry relative="1" as="geometry"/>
                </mxCell>
                <mxCell id="Omx6OgspaeR46mFSoIdj-2" value="Find the email record in userVerfifcation.csv" style="whiteSpace=wrap;html=1;" parent="1" vertex="1">
                    <mxGeometry x="2610" y="330" width="120" height="60" as="geometry"/>
                </mxCell>
                <mxCell id="Omx6OgspaeR46mFSoIdj-4" value="YES" style="text;html=1;align=center;verticalAlign=middle;resizable=0;points=[];autosize=1;strokeColor=none;fillColor=none;" parent="1" vertex="1">
                    <mxGeometry x="2525" y="318" width="50" height="30" as="geometry"/>
                </mxCell>
                <mxCell id="Omx6OgspaeR46mFSoIdj-5" value="userVerifcation.csv" style="shape=cylinder3;whiteSpace=wrap;html=1;boundedLbl=1;backgroundOutline=1;size=15;direction=east;" parent="1" vertex="1">
                    <mxGeometry x="2590" y="433" width="160" height="132" as="geometry"/>
                </mxCell>
                <mxCell id="Omx6OgspaeR46mFSoIdj-10" value="" style="edgeStyle=none;html=1;" parent="1" source="Omx6OgspaeR46mFSoIdj-7" target="Omx6OgspaeR46mFSoIdj-9" edge="1">
                    <mxGeometry relative="1" as="geometry"/>
                </mxCell>
                <mxCell id="Omx6OgspaeR46mFSoIdj-7" value="Update the &#39;Verified&#39; field to True" style="whiteSpace=wrap;html=1;" parent="1" vertex="1">
                    <mxGeometry x="2820" y="330" width="120" height="60" as="geometry"/>
                </mxCell>
                <mxCell id="Omx6OgspaeR46mFSoIdj-21" value="" style="edgeStyle=none;html=1;" parent="1" source="Omx6OgspaeR46mFSoIdj-9" target="Omx6OgspaeR46mFSoIdj-20" edge="1">
                    <mxGeometry relative="1" as="geometry"/>
                </mxCell>
                <mxCell id="Omx6OgspaeR46mFSoIdj-9" value="Display message in console to indicate successful verfication" style="whiteSpace=wrap;html=1;" parent="1" vertex="1">
                    <mxGeometry x="3020" y="330" width="120" height="60" as="geometry"/>
                </mxCell>
                <mxCell id="Omx6OgspaeR46mFSoIdj-14" value="" style="edgeStyle=none;html=1;" parent="1" source="Omx6OgspaeR46mFSoIdj-11" target="Omx6OgspaeR46mFSoIdj-13" edge="1">
                    <mxGeometry relative="1" as="geometry"/>
                </mxCell>
                <mxCell id="Omx6OgspaeR46mFSoIdj-17" value="" style="edgeStyle=none;html=1;" parent="1" source="Omx6OgspaeR46mFSoIdj-11" target="Omx6OgspaeR46mFSoIdj-16" edge="1">
                    <mxGeometry relative="1" as="geometry"/>
                </mxCell>
                <mxCell id="Omx6OgspaeR46mFSoIdj-11" value="Does object exist in file?" style="rhombus;whiteSpace=wrap;html=1;rounded=0;" parent="1" vertex="1">
                    <mxGeometry x="1650" y="515" width="120" height="110" as="geometry"/>
                </mxCell>
                <mxCell id="Omx6OgspaeR46mFSoIdj-19" style="edgeStyle=none;html=1;entryX=0.5;entryY=1;entryDx=0;entryDy=0;" parent="1" source="Omx6OgspaeR46mFSoIdj-13" target="Omx6OgspaeR46mFSoIdj-16" edge="1">
                    <mxGeometry relative="1" as="geometry"/>
                </mxCell>
                <mxCell id="Omx6OgspaeR46mFSoIdj-13" value="Create a new ArrayList to store all verifications - name=email" style="whiteSpace=wrap;html=1;rounded=0;" parent="1" vertex="1">
                    <mxGeometry x="1650" y="690" width="120" height="60" as="geometry"/>
                </mxCell>
                <mxCell id="Omx6OgspaeR46mFSoIdj-15" value="NO" style="text;html=1;align=center;verticalAlign=middle;resizable=0;points=[];autosize=1;strokeColor=none;fillColor=none;" parent="1" vertex="1">
                    <mxGeometry x="1720" y="640" width="40" height="30" as="geometry"/>
                </mxCell>
                <mxCell id="Omx6OgspaeR46mFSoIdj-16" value="Append the value of False to the back of the list" style="whiteSpace=wrap;html=1;rounded=0;" parent="1" vertex="1">
                    <mxGeometry x="1850" y="540" width="120" height="60" as="geometry"/>
                </mxCell>
                <mxCell id="Omx6OgspaeR46mFSoIdj-18" value="YES" style="text;html=1;align=center;verticalAlign=middle;resizable=0;points=[];autosize=1;strokeColor=none;fillColor=none;" parent="1" vertex="1">
                    <mxGeometry x="1780" y="535" width="50" height="30" as="geometry"/>
                </mxCell>
                <mxCell id="Omx6OgspaeR46mFSoIdj-20" value="END" style="ellipse;whiteSpace=wrap;html=1;" parent="1" vertex="1">
                    <mxGeometry x="3220" y="318" width="80" height="80" as="geometry"/>
                </mxCell>
                <mxCell id="Omx6OgspaeR46mFSoIdj-22" value="" style="verticalLabelPosition=bottom;shadow=0;dashed=0;align=center;html=1;verticalAlign=top;strokeWidth=1;shape=mxgraph.mockup.markup.curlyBrace;whiteSpace=wrap;strokeColor=#999999;" parent="1" vertex="1">
                    <mxGeometry x="1730" y="100" width="1530" height="20" as="geometry"/>
                </mxCell>
                <mxCell id="Omx6OgspaeR46mFSoIdj-23" value="&lt;font style=&quot;font-size: 24px;&quot;&gt;EMAIL HAS BEEN SENT - AWAITING VERIFICATION&lt;/font&gt;" style="text;html=1;align=center;verticalAlign=middle;resizable=0;points=[];autosize=1;strokeColor=none;fillColor=none;" parent="1" vertex="1">
                    <mxGeometry x="2195" y="60" width="600" height="40" as="geometry"/>
                </mxCell>
                <mxCell id="Omx6OgspaeR46mFSoIdj-24" value="userVerifcation.csv - check for ArrayList" style="shape=cylinder3;whiteSpace=wrap;html=1;boundedLbl=1;backgroundOutline=1;size=15;direction=east;" parent="1" vertex="1">
                    <mxGeometry x="1410" y="710" width="160" height="132" as="geometry"/>
                </mxCell>
                <mxCell id="YB5d4Bs-l8yMtoOKALxF-5" value="" style="edgeStyle=none;html=1;" parent="1" source="YB5d4Bs-l8yMtoOKALxF-4" target="_tYb1IvQm6eODKTwQcI8-19" edge="1">
                    <mxGeometry relative="1" as="geometry"/>
                </mxCell>
                <mxCell id="YB5d4Bs-l8yMtoOKALxF-8" value="" style="edgeStyle=none;html=1;" parent="1" source="YB5d4Bs-l8yMtoOKALxF-4" target="YB5d4Bs-l8yMtoOKALxF-7" edge="1">
                    <mxGeometry relative="1" as="geometry"/>
                </mxCell>
                <mxCell id="YB5d4Bs-l8yMtoOKALxF-4" value="Are the attempts greater than 3?" style="rhombus;whiteSpace=wrap;html=1;" parent="1" vertex="1">
                    <mxGeometry x="2380" y="595" width="135" height="120" as="geometry"/>
                </mxCell>
                <mxCell id="YB5d4Bs-l8yMtoOKALxF-6" value="NO" style="text;html=1;align=center;verticalAlign=middle;resizable=0;points=[];autosize=1;strokeColor=none;fillColor=none;" parent="1" vertex="1">
                    <mxGeometry x="2320" y="620" width="40" height="30" as="geometry"/>
                </mxCell>
                <mxCell id="YB5d4Bs-l8yMtoOKALxF-10" value="" style="edgeStyle=none;html=1;" parent="1" source="YB5d4Bs-l8yMtoOKALxF-7" target="Omx6OgspaeR46mFSoIdj-5" edge="1">
                    <mxGeometry relative="1" as="geometry"/>
                </mxCell>
                <mxCell id="YB5d4Bs-l8yMtoOKALxF-12" value="" style="edgeStyle=none;html=1;" parent="1" source="YB5d4Bs-l8yMtoOKALxF-7" target="YB5d4Bs-l8yMtoOKALxF-11" edge="1">
                    <mxGeometry relative="1" as="geometry"/>
                </mxCell>
                <mxCell id="YB5d4Bs-l8yMtoOKALxF-7" value="Find the record in userVerification.csv" style="whiteSpace=wrap;html=1;" parent="1" vertex="1">
                    <mxGeometry x="2610" y="625" width="120" height="60" as="geometry"/>
                </mxCell>
                <mxCell id="YB5d4Bs-l8yMtoOKALxF-9" value="YES" style="text;html=1;align=center;verticalAlign=middle;resizable=0;points=[];autosize=1;strokeColor=none;fillColor=none;" parent="1" vertex="1">
                    <mxGeometry x="2525" y="620" width="50" height="30" as="geometry"/>
                </mxCell>
                <mxCell id="YB5d4Bs-l8yMtoOKALxF-14" value="" style="edgeStyle=none;html=1;" parent="1" source="YB5d4Bs-l8yMtoOKALxF-11" target="YB5d4Bs-l8yMtoOKALxF-13" edge="1">
                    <mxGeometry relative="1" as="geometry"/>
                </mxCell>
                <mxCell id="YB5d4Bs-l8yMtoOKALxF-11" value="Update the &#39;Verfiied&#39; field to False" style="whiteSpace=wrap;html=1;" parent="1" vertex="1">
                    <mxGeometry x="2810" y="625" width="120" height="60" as="geometry"/>
                </mxCell>
                <mxCell id="YB5d4Bs-l8yMtoOKALxF-16" value="" style="edgeStyle=none;html=1;" parent="1" source="YB5d4Bs-l8yMtoOKALxF-13" target="YB5d4Bs-l8yMtoOKALxF-15" edge="1">
                    <mxGeometry relative="1" as="geometry"/>
                </mxCell>
                <mxCell id="YB5d4Bs-l8yMtoOKALxF-13" value="Display message in console describing the unsuccessful verification" style="whiteSpace=wrap;html=1;" parent="1" vertex="1">
                    <mxGeometry x="3020" y="625" width="120" height="60" as="geometry"/>
                </mxCell>
                <mxCell id="YB5d4Bs-l8yMtoOKALxF-15" value="END" style="ellipse;whiteSpace=wrap;html=1;" parent="1" vertex="1">
                    <mxGeometry x="3220" y="615" width="80" height="80" as="geometry"/>
                </mxCell>
            </root>
        </mxGraphModel>
    </diagram>
    <diagram id="rJ2amVwpAAtqRxf9kdlk" name="Transfer">
        <mxGraphModel dx="1889" dy="1631" grid="1" gridSize="10" guides="1" tooltips="1" connect="1" arrows="1" fold="1" page="1" pageScale="1" pageWidth="850" pageHeight="1100" math="0" shadow="0">
            <root>
                <mxCell id="0"/>
                <mxCell id="1" parent="0"/>
                <mxCell id="AZVIyAZrzU1uXmZ9Mev5-3" value="" style="edgeStyle=none;html=1;" parent="1" source="AZVIyAZrzU1uXmZ9Mev5-85" target="AZVIyAZrzU1uXmZ9Mev5-2" edge="1">
                    <mxGeometry relative="1" as="geometry"/>
                </mxCell>
                <mxCell id="AZVIyAZrzU1uXmZ9Mev5-1" value="Trigger - user selects the transfer option" style="strokeWidth=2;html=1;shape=mxgraph.flowchart.start_1;whiteSpace=wrap;" parent="1" vertex="1">
                    <mxGeometry x="-160" y="360" width="120" height="80" as="geometry"/>
                </mxCell>
                <mxCell id="AZVIyAZrzU1uXmZ9Mev5-5" value="" style="edgeStyle=none;html=1;" parent="1" source="AZVIyAZrzU1uXmZ9Mev5-2" target="AZVIyAZrzU1uXmZ9Mev5-9" edge="1">
                    <mxGeometry relative="1" as="geometry">
                        <mxPoint x="500" y="400" as="targetPoint"/>
                    </mxGeometry>
                </mxCell>
                <mxCell id="AZVIyAZrzU1uXmZ9Mev5-8" value="" style="group" parent="1" vertex="1" connectable="0">
                    <mxGeometry x="230" y="310" width="290" height="130" as="geometry"/>
                </mxCell>
                <mxCell id="AZVIyAZrzU1uXmZ9Mev5-2" value="User enters the account number and sort code of account they wish to transfer to" style="shape=parallelogram;perimeter=parallelogramPerimeter;whiteSpace=wrap;html=1;fixedSize=1;" parent="AZVIyAZrzU1uXmZ9Mev5-8" vertex="1">
                    <mxGeometry x="20" y="50" width="160" height="80" as="geometry"/>
                </mxCell>
                <mxCell id="AZVIyAZrzU1uXmZ9Mev5-15" value="" style="edgeStyle=none;html=1;" parent="1" source="AZVIyAZrzU1uXmZ9Mev5-9" target="AZVIyAZrzU1uXmZ9Mev5-14" edge="1">
                    <mxGeometry relative="1" as="geometry"/>
                </mxCell>
                <mxCell id="AZVIyAZrzU1uXmZ9Mev5-38" value="" style="edgeStyle=none;html=1;" parent="1" source="AZVIyAZrzU1uXmZ9Mev5-9" target="AZVIyAZrzU1uXmZ9Mev5-37" edge="1">
                    <mxGeometry relative="1" as="geometry"/>
                </mxCell>
                <mxCell id="AZVIyAZrzU1uXmZ9Mev5-9" value="Does the sort code an account number match an account?" style="rhombus;whiteSpace=wrap;html=1;" parent="1" vertex="1">
                    <mxGeometry x="510" y="345" width="130" height="110" as="geometry"/>
                </mxCell>
                <mxCell id="AZVIyAZrzU1uXmZ9Mev5-10" value="BankDetails.csv" style="shape=cylinder3;whiteSpace=wrap;html=1;boundedLbl=1;backgroundOutline=1;size=15;" parent="1" vertex="1">
                    <mxGeometry x="500" y="590" width="160" height="140" as="geometry"/>
                </mxCell>
                <mxCell id="AZVIyAZrzU1uXmZ9Mev5-11" value="" style="shape=doubleArrow;direction=south;whiteSpace=wrap;html=1;" parent="1" vertex="1">
                    <mxGeometry x="545" y="460" width="60" height="130" as="geometry"/>
                </mxCell>
                <mxCell id="AZVIyAZrzU1uXmZ9Mev5-12" value="Query the csv file to&amp;nbsp;&lt;div&gt;check if a record exists&lt;/div&gt;" style="text;html=1;align=center;verticalAlign=middle;resizable=0;points=[];autosize=1;strokeColor=none;fillColor=none;" parent="1" vertex="1">
                    <mxGeometry x="410" y="510" width="150" height="40" as="geometry"/>
                </mxCell>
                <mxCell id="AZVIyAZrzU1uXmZ9Mev5-13" value="Return a boolen value&amp;nbsp;&lt;div&gt;i&lt;span style=&quot;color: rgb(192, 192, 192); background-color: transparent;&quot;&gt;ndicating the resutl&lt;/span&gt;&lt;/div&gt;" style="text;html=1;align=center;verticalAlign=middle;resizable=0;points=[];autosize=1;strokeColor=none;fillColor=none;" parent="1" vertex="1">
                    <mxGeometry x="585" y="510" width="140" height="40" as="geometry"/>
                </mxCell>
                <mxCell id="AZVIyAZrzU1uXmZ9Mev5-18" value="" style="edgeStyle=none;html=1;" parent="1" source="AZVIyAZrzU1uXmZ9Mev5-14" target="AZVIyAZrzU1uXmZ9Mev5-17" edge="1">
                    <mxGeometry relative="1" as="geometry"/>
                </mxCell>
                <mxCell id="AZVIyAZrzU1uXmZ9Mev5-14" value="Display a message indidcating the account wasnt found&lt;div&gt;(DISPLAY IN RED)&lt;/div&gt;" style="whiteSpace=wrap;html=1;" parent="1" vertex="1">
                    <mxGeometry x="515" y="200" width="120" height="60" as="geometry"/>
                </mxCell>
                <mxCell id="AZVIyAZrzU1uXmZ9Mev5-16" value="False" style="text;html=1;align=center;verticalAlign=middle;resizable=0;points=[];autosize=1;strokeColor=none;fillColor=none;" parent="1" vertex="1">
                    <mxGeometry x="575" y="298" width="50" height="30" as="geometry"/>
                </mxCell>
                <mxCell id="AZVIyAZrzU1uXmZ9Mev5-6" value="&lt;font style=&quot;font-size: 18px;&quot;&gt;ACCOUNT + SORT CODE PAGE&lt;/font&gt;" style="text;html=1;align=center;verticalAlign=middle;resizable=0;points=[];autosize=1;strokeColor=none;fillColor=none;" parent="1" vertex="1">
                    <mxGeometry x="185" y="460" width="290" height="40" as="geometry"/>
                </mxCell>
                <mxCell id="AZVIyAZrzU1uXmZ9Mev5-7" value="" style="edgeStyle=none;html=1;" parent="1" source="AZVIyAZrzU1uXmZ9Mev5-6" target="AZVIyAZrzU1uXmZ9Mev5-2" edge="1">
                    <mxGeometry relative="1" as="geometry"/>
                </mxCell>
                <mxCell id="AZVIyAZrzU1uXmZ9Mev5-30" style="edgeStyle=none;html=1;" parent="1" source="AZVIyAZrzU1uXmZ9Mev5-31" target="AZVIyAZrzU1uXmZ9Mev5-2" edge="1">
                    <mxGeometry relative="1" as="geometry"/>
                </mxCell>
                <mxCell id="AZVIyAZrzU1uXmZ9Mev5-41" value="" style="edgeStyle=none;html=1;" parent="1" source="AZVIyAZrzU1uXmZ9Mev5-37" target="AZVIyAZrzU1uXmZ9Mev5-40" edge="1">
                    <mxGeometry relative="1" as="geometry"/>
                </mxCell>
                <mxCell id="AZVIyAZrzU1uXmZ9Mev5-37" value="User enters amount they wish to withdraw" style="shape=parallelogram;perimeter=parallelogramPerimeter;whiteSpace=wrap;html=1;fixedSize=1;" parent="1" vertex="1">
                    <mxGeometry x="910" y="360" width="160" height="80" as="geometry"/>
                </mxCell>
                <mxCell id="AZVIyAZrzU1uXmZ9Mev5-39" value="True" style="text;html=1;align=center;verticalAlign=middle;resizable=0;points=[];autosize=1;strokeColor=none;fillColor=none;" parent="1" vertex="1">
                    <mxGeometry x="645" y="370" width="50" height="30" as="geometry"/>
                </mxCell>
                <mxCell id="AZVIyAZrzU1uXmZ9Mev5-43" value="" style="edgeStyle=none;html=1;" parent="1" source="AZVIyAZrzU1uXmZ9Mev5-40" target="AZVIyAZrzU1uXmZ9Mev5-42" edge="1">
                    <mxGeometry relative="1" as="geometry"/>
                </mxCell>
                <mxCell id="AZVIyAZrzU1uXmZ9Mev5-76" value="" style="edgeStyle=none;html=1;" parent="1" source="AZVIyAZrzU1uXmZ9Mev5-40" target="AZVIyAZrzU1uXmZ9Mev5-75" edge="1">
                    <mxGeometry relative="1" as="geometry"/>
                </mxCell>
                <mxCell id="AZVIyAZrzU1uXmZ9Mev5-40" value="Is amount they wish to transfer less than current balance?" style="rhombus;whiteSpace=wrap;html=1;" parent="1" vertex="1">
                    <mxGeometry x="1430" y="340" width="140" height="120" as="geometry"/>
                </mxCell>
                <mxCell id="AZVIyAZrzU1uXmZ9Mev5-50" value="" style="edgeStyle=none;html=1;" parent="1" source="AZVIyAZrzU1uXmZ9Mev5-42" target="AZVIyAZrzU1uXmZ9Mev5-49" edge="1">
                    <mxGeometry relative="1" as="geometry"/>
                </mxCell>
                <mxCell id="AZVIyAZrzU1uXmZ9Mev5-42" value="Display a message indicating they have insufficient funds&lt;div&gt;(DISPLAY IN RED)&lt;/div&gt;" style="whiteSpace=wrap;html=1;" parent="1" vertex="1">
                    <mxGeometry x="1440" y="200" width="120" height="60" as="geometry"/>
                </mxCell>
                <mxCell id="AZVIyAZrzU1uXmZ9Mev5-44" value="Display a message prompting them to enter amount to withdraw (GREEN)" style="whiteSpace=wrap;html=1;" parent="1" vertex="1">
                    <mxGeometry x="725" y="370" width="120" height="60" as="geometry"/>
                </mxCell>
                <mxCell id="AZVIyAZrzU1uXmZ9Mev5-47" value="" style="edgeStyle=none;html=1;" parent="1" source="AZVIyAZrzU1uXmZ9Mev5-45" target="AZVIyAZrzU1uXmZ9Mev5-46" edge="1">
                    <mxGeometry relative="1" as="geometry"/>
                </mxCell>
                <mxCell id="AZVIyAZrzU1uXmZ9Mev5-45" value="Is user input of type double?" style="rhombus;whiteSpace=wrap;html=1;" parent="1" vertex="1">
                    <mxGeometry x="1130" y="340" width="140" height="120" as="geometry"/>
                </mxCell>
                <mxCell id="AZVIyAZrzU1uXmZ9Mev5-46" value="Display an error - cannot enter a str&lt;div&gt;(RED)&lt;/div&gt;" style="whiteSpace=wrap;html=1;" parent="1" vertex="1">
                    <mxGeometry x="1140" y="520" width="120" height="60" as="geometry"/>
                </mxCell>
                <mxCell id="AZVIyAZrzU1uXmZ9Mev5-48" value="" style="edgeStyle=segmentEdgeStyle;endArrow=classic;html=1;curved=0;rounded=0;endSize=8;startSize=8;" parent="1" target="AZVIyAZrzU1uXmZ9Mev5-44" edge="1">
                    <mxGeometry width="50" height="50" relative="1" as="geometry">
                        <mxPoint x="1140" y="560.04" as="sourcePoint"/>
                        <mxPoint x="785" y="450" as="targetPoint"/>
                        <Array as="points">
                            <mxPoint x="785" y="560"/>
                        </Array>
                    </mxGeometry>
                </mxCell>
                <mxCell id="AZVIyAZrzU1uXmZ9Mev5-59" value="" style="edgeStyle=none;html=1;" parent="1" source="AZVIyAZrzU1uXmZ9Mev5-57" target="AZVIyAZrzU1uXmZ9Mev5-44" edge="1">
                    <mxGeometry relative="1" as="geometry"/>
                </mxCell>
                <mxCell id="AZVIyAZrzU1uXmZ9Mev5-57" value="y or n entered" style="rhombus;whiteSpace=wrap;html=1;" parent="1" vertex="1">
                    <mxGeometry x="732.5" y="175" width="105" height="110" as="geometry"/>
                </mxCell>
                <mxCell id="AZVIyAZrzU1uXmZ9Mev5-72" value="FALSE" style="text;html=1;align=center;verticalAlign=middle;resizable=0;points=[];autosize=1;strokeColor=none;fillColor=none;" parent="1" vertex="1">
                    <mxGeometry x="1190" y="468" width="60" height="30" as="geometry"/>
                </mxCell>
                <mxCell id="AZVIyAZrzU1uXmZ9Mev5-73" value="TRUE" style="text;html=1;align=center;verticalAlign=middle;resizable=0;points=[];autosize=1;strokeColor=none;fillColor=none;" parent="1" vertex="1">
                    <mxGeometry x="1310" y="368" width="60" height="30" as="geometry"/>
                </mxCell>
                <mxCell id="AZVIyAZrzU1uXmZ9Mev5-74" value="FALSE" style="text;html=1;align=center;verticalAlign=middle;resizable=0;points=[];autosize=1;strokeColor=none;fillColor=none;" parent="1" vertex="1">
                    <mxGeometry x="1500" y="298" width="60" height="30" as="geometry"/>
                </mxCell>
                <mxCell id="AZVIyAZrzU1uXmZ9Mev5-79" value="" style="edgeStyle=none;html=1;" parent="1" source="AZVIyAZrzU1uXmZ9Mev5-75" target="AZVIyAZrzU1uXmZ9Mev5-78" edge="1">
                    <mxGeometry relative="1" as="geometry"/>
                </mxCell>
                <mxCell id="AZVIyAZrzU1uXmZ9Mev5-75" value="Display prompt to ask user if they are sure they want to transfer" style="whiteSpace=wrap;html=1;" parent="1" vertex="1">
                    <mxGeometry x="1820" y="370" width="120" height="60" as="geometry"/>
                </mxCell>
                <mxCell id="AZVIyAZrzU1uXmZ9Mev5-77" value="TRUE" style="text;html=1;align=center;verticalAlign=middle;resizable=0;points=[];autosize=1;strokeColor=none;fillColor=none;" parent="1" vertex="1">
                    <mxGeometry x="1570" y="368" width="60" height="30" as="geometry"/>
                </mxCell>
                <mxCell id="AZVIyAZrzU1uXmZ9Mev5-83" value="" style="edgeStyle=none;html=1;" parent="1" source="AZVIyAZrzU1uXmZ9Mev5-78" target="AZVIyAZrzU1uXmZ9Mev5-82" edge="1">
                    <mxGeometry relative="1" as="geometry"/>
                </mxCell>
                <mxCell id="AZVIyAZrzU1uXmZ9Mev5-88" value="" style="edgeStyle=none;html=1;" parent="1" source="AZVIyAZrzU1uXmZ9Mev5-78" target="AZVIyAZrzU1uXmZ9Mev5-87" edge="1">
                    <mxGeometry relative="1" as="geometry"/>
                </mxCell>
                <mxCell id="AZVIyAZrzU1uXmZ9Mev5-78" value="Does user confirm transfer" style="rhombus;whiteSpace=wrap;html=1;" parent="1" vertex="1">
                    <mxGeometry x="2010" y="345" width="130" height="110" as="geometry"/>
                </mxCell>
                <mxCell id="AZVIyAZrzU1uXmZ9Mev5-80" value="Display transferee details + transfer amount" style="whiteSpace=wrap;html=1;" parent="1" vertex="1">
                    <mxGeometry x="1640" y="370" width="120" height="60" as="geometry"/>
                </mxCell>
                <mxCell id="AZVIyAZrzU1uXmZ9Mev5-92" value="" style="edgeStyle=none;html=1;" parent="1" source="AZVIyAZrzU1uXmZ9Mev5-82" target="AZVIyAZrzU1uXmZ9Mev5-91" edge="1">
                    <mxGeometry relative="1" as="geometry"/>
                </mxCell>
                <mxCell id="AZVIyAZrzU1uXmZ9Mev5-82" value="Retrieve the line that the account number + sort code were found" style="whiteSpace=wrap;html=1;" parent="1" vertex="1">
                    <mxGeometry x="2250" y="370" width="120" height="60" as="geometry"/>
                </mxCell>
                <mxCell id="AZVIyAZrzU1uXmZ9Mev5-84" value="TRUE" style="text;html=1;align=center;verticalAlign=middle;resizable=0;points=[];autosize=1;strokeColor=none;fillColor=none;" parent="1" vertex="1">
                    <mxGeometry x="2160" y="368" width="60" height="30" as="geometry"/>
                </mxCell>
                <mxCell id="AZVIyAZrzU1uXmZ9Mev5-86" value="" style="edgeStyle=none;html=1;" parent="1" source="AZVIyAZrzU1uXmZ9Mev5-1" target="AZVIyAZrzU1uXmZ9Mev5-85" edge="1">
                    <mxGeometry relative="1" as="geometry">
                        <mxPoint x="-40" y="400" as="sourcePoint"/>
                        <mxPoint x="260" y="400" as="targetPoint"/>
                    </mxGeometry>
                </mxCell>
                <mxCell id="AZVIyAZrzU1uXmZ9Mev5-85" value="Display message asking for account number + sort code" style="rounded=0;whiteSpace=wrap;html=1;" parent="1" vertex="1">
                    <mxGeometry x="40" y="368" width="120" height="60" as="geometry"/>
                </mxCell>
                <mxCell id="AZVIyAZrzU1uXmZ9Mev5-87" value="Send back to intial screen" style="whiteSpace=wrap;html=1;" parent="1" vertex="1">
                    <mxGeometry x="2015" y="520" width="120" height="60" as="geometry"/>
                </mxCell>
                <mxCell id="AZVIyAZrzU1uXmZ9Mev5-89" value="FALSE" style="text;html=1;align=center;verticalAlign=middle;resizable=0;points=[];autosize=1;strokeColor=none;fillColor=none;" parent="1" vertex="1">
                    <mxGeometry x="2075" y="470" width="60" height="30" as="geometry"/>
                </mxCell>
                <mxCell id="AZVIyAZrzU1uXmZ9Mev5-90" value="" style="edgeStyle=segmentEdgeStyle;endArrow=classic;html=1;curved=0;rounded=0;endSize=8;startSize=8;" parent="1" source="AZVIyAZrzU1uXmZ9Mev5-87" target="AZVIyAZrzU1uXmZ9Mev5-85" edge="1">
                    <mxGeometry width="50" height="50" relative="1" as="geometry">
                        <mxPoint x="2078" y="590" as="sourcePoint"/>
                        <mxPoint x="-26.666666666666668" y="530" as="targetPoint"/>
                        <Array as="points">
                            <mxPoint x="2075" y="910"/>
                            <mxPoint x="100" y="910"/>
                        </Array>
                    </mxGeometry>
                </mxCell>
                <mxCell id="AZVIyAZrzU1uXmZ9Mev5-104" value="" style="edgeStyle=none;html=1;" parent="1" source="AZVIyAZrzU1uXmZ9Mev5-91" target="AZVIyAZrzU1uXmZ9Mev5-105" edge="1">
                    <mxGeometry relative="1" as="geometry">
                        <mxPoint x="2855" y="400.0000000000002" as="targetPoint"/>
                    </mxGeometry>
                </mxCell>
                <mxCell id="AZVIyAZrzU1uXmZ9Mev5-91" value="Store the first field of that record to an email variable.&amp;nbsp;" style="whiteSpace=wrap;html=1;" parent="1" vertex="1">
                    <mxGeometry x="2650" y="370" width="120" height="60" as="geometry"/>
                </mxCell>
                <mxCell id="AZVIyAZrzU1uXmZ9Mev5-93" value="Does email exist in first index?" style="rhombus;whiteSpace=wrap;html=1;" parent="1" vertex="1">
                    <mxGeometry x="2450" y="345" width="110" height="110" as="geometry"/>
                </mxCell>
                <mxCell id="AZVIyAZrzU1uXmZ9Mev5-99" value="" style="edgeStyle=none;html=1;" parent="1" source="AZVIyAZrzU1uXmZ9Mev5-93" target="AZVIyAZrzU1uXmZ9Mev5-97" edge="1">
                    <mxGeometry relative="1" as="geometry">
                        <mxPoint x="2505" y="345" as="sourcePoint"/>
                        <mxPoint x="2505" y="80" as="targetPoint"/>
                    </mxGeometry>
                </mxCell>
                <mxCell id="AZVIyAZrzU1uXmZ9Mev5-102" value="TRUE" style="text;html=1;align=center;verticalAlign=middle;resizable=0;points=[];autosize=1;strokeColor=none;fillColor=none;" parent="1" vertex="1">
                    <mxGeometry x="2570" y="368" width="60" height="30" as="geometry"/>
                </mxCell>
                <mxCell id="AZVIyAZrzU1uXmZ9Mev5-107" value="" style="edgeStyle=none;html=1;" parent="1" source="AZVIyAZrzU1uXmZ9Mev5-105" target="AZVIyAZrzU1uXmZ9Mev5-106" edge="1">
                    <mxGeometry relative="1" as="geometry"/>
                </mxCell>
                <mxCell id="AZVIyAZrzU1uXmZ9Mev5-109" value="" style="edgeStyle=none;html=1;" parent="1" source="AZVIyAZrzU1uXmZ9Mev5-105" target="AZVIyAZrzU1uXmZ9Mev5-117" edge="1">
                    <mxGeometry relative="1" as="geometry">
                        <mxPoint x="2895" y="250.00000000000023" as="targetPoint"/>
                    </mxGeometry>
                </mxCell>
                <mxCell id="AZVIyAZrzU1uXmZ9Mev5-120" value="" style="edgeStyle=none;html=1;" parent="1" source="AZVIyAZrzU1uXmZ9Mev5-105" target="AZVIyAZrzU1uXmZ9Mev5-119" edge="1">
                    <mxGeometry relative="1" as="geometry"/>
                </mxCell>
                <mxCell id="AZVIyAZrzU1uXmZ9Mev5-105" value="Does email exist in userBalances.csv?" style="rhombus;whiteSpace=wrap;html=1;" parent="1" vertex="1">
                    <mxGeometry x="2840" y="343" width="110" height="110" as="geometry"/>
                </mxCell>
                <mxCell id="AZVIyAZrzU1uXmZ9Mev5-106" value="userBalances.csv" style="shape=cylinder3;whiteSpace=wrap;html=1;boundedLbl=1;backgroundOutline=1;size=15;" parent="1" vertex="1">
                    <mxGeometry x="3017.5" y="590" width="165" height="160" as="geometry"/>
                </mxCell>
                <mxCell id="AZVIyAZrzU1uXmZ9Mev5-111" value="" style="group" parent="1" vertex="1" connectable="0">
                    <mxGeometry x="2445" y="-80" width="120" height="408" as="geometry"/>
                </mxCell>
                <mxCell id="AZVIyAZrzU1uXmZ9Mev5-95" value="" style="edgeStyle=none;html=1;" parent="AZVIyAZrzU1uXmZ9Mev5-111" source="AZVIyAZrzU1uXmZ9Mev5-97" target="AZVIyAZrzU1uXmZ9Mev5-94" edge="1">
                    <mxGeometry relative="1" as="geometry"/>
                </mxCell>
                <mxCell id="AZVIyAZrzU1uXmZ9Mev5-101" value="" style="edgeStyle=none;html=1;" parent="AZVIyAZrzU1uXmZ9Mev5-111" source="AZVIyAZrzU1uXmZ9Mev5-94" target="AZVIyAZrzU1uXmZ9Mev5-100" edge="1">
                    <mxGeometry relative="1" as="geometry"/>
                </mxCell>
                <mxCell id="AZVIyAZrzU1uXmZ9Mev5-94" value="Report an error and exit the process" style="whiteSpace=wrap;html=1;" parent="AZVIyAZrzU1uXmZ9Mev5-111" vertex="1">
                    <mxGeometry y="140" width="120" height="60" as="geometry"/>
                </mxCell>
                <mxCell id="AZVIyAZrzU1uXmZ9Mev5-96" value="FALSE" style="text;html=1;align=center;verticalAlign=middle;resizable=0;points=[];autosize=1;strokeColor=none;fillColor=none;" parent="AZVIyAZrzU1uXmZ9Mev5-111" vertex="1">
                    <mxGeometry x="55" y="378" width="60" height="30" as="geometry"/>
                </mxCell>
                <mxCell id="AZVIyAZrzU1uXmZ9Mev5-97" value="Display an error saying failed to transfer (RED)" style="whiteSpace=wrap;html=1;" parent="AZVIyAZrzU1uXmZ9Mev5-111" vertex="1">
                    <mxGeometry y="265" width="120" height="60" as="geometry"/>
                </mxCell>
                <mxCell id="AZVIyAZrzU1uXmZ9Mev5-100" value="END" style="ellipse;whiteSpace=wrap;html=1;" parent="AZVIyAZrzU1uXmZ9Mev5-111" vertex="1">
                    <mxGeometry x="20" width="80" height="80" as="geometry"/>
                </mxCell>
                <mxCell id="AZVIyAZrzU1uXmZ9Mev5-112" value="" style="group" parent="1" vertex="1" connectable="0">
                    <mxGeometry x="2835" y="-80" width="120" height="408" as="geometry"/>
                </mxCell>
                <mxCell id="AZVIyAZrzU1uXmZ9Mev5-113" value="" style="edgeStyle=none;html=1;" parent="AZVIyAZrzU1uXmZ9Mev5-112" source="AZVIyAZrzU1uXmZ9Mev5-117" target="AZVIyAZrzU1uXmZ9Mev5-115" edge="1">
                    <mxGeometry relative="1" as="geometry"/>
                </mxCell>
                <mxCell id="AZVIyAZrzU1uXmZ9Mev5-114" value="" style="edgeStyle=none;html=1;" parent="AZVIyAZrzU1uXmZ9Mev5-112" source="AZVIyAZrzU1uXmZ9Mev5-115" target="AZVIyAZrzU1uXmZ9Mev5-118" edge="1">
                    <mxGeometry relative="1" as="geometry"/>
                </mxCell>
                <mxCell id="AZVIyAZrzU1uXmZ9Mev5-115" value="Report an error and exit the process" style="whiteSpace=wrap;html=1;" parent="AZVIyAZrzU1uXmZ9Mev5-112" vertex="1">
                    <mxGeometry y="140" width="120" height="60" as="geometry"/>
                </mxCell>
                <mxCell id="AZVIyAZrzU1uXmZ9Mev5-116" value="FALSE" style="text;html=1;align=center;verticalAlign=middle;resizable=0;points=[];autosize=1;strokeColor=none;fillColor=none;" parent="AZVIyAZrzU1uXmZ9Mev5-112" vertex="1">
                    <mxGeometry x="55" y="378" width="60" height="30" as="geometry"/>
                </mxCell>
                <mxCell id="AZVIyAZrzU1uXmZ9Mev5-117" value="Display an error saying failed to transfer (RED)" style="whiteSpace=wrap;html=1;" parent="AZVIyAZrzU1uXmZ9Mev5-112" vertex="1">
                    <mxGeometry y="265" width="120" height="60" as="geometry"/>
                </mxCell>
                <mxCell id="AZVIyAZrzU1uXmZ9Mev5-118" value="END" style="ellipse;whiteSpace=wrap;html=1;" parent="AZVIyAZrzU1uXmZ9Mev5-112" vertex="1">
                    <mxGeometry x="20" width="80" height="80" as="geometry"/>
                </mxCell>
                <mxCell id="AZVIyAZrzU1uXmZ9Mev5-123" value="" style="edgeStyle=none;html=1;" parent="1" source="AZVIyAZrzU1uXmZ9Mev5-119" target="AZVIyAZrzU1uXmZ9Mev5-122" edge="1">
                    <mxGeometry relative="1" as="geometry"/>
                </mxCell>
                <mxCell id="AZVIyAZrzU1uXmZ9Mev5-119" value="Add amount transferred to current balance" style="whiteSpace=wrap;html=1;" parent="1" vertex="1">
                    <mxGeometry x="3040" y="368" width="120" height="60" as="geometry"/>
                </mxCell>
                <mxCell id="AZVIyAZrzU1uXmZ9Mev5-121" value="TRUE" style="text;html=1;align=center;verticalAlign=middle;resizable=0;points=[];autosize=1;strokeColor=none;fillColor=none;" parent="1" vertex="1">
                    <mxGeometry x="2960" y="368" width="60" height="30" as="geometry"/>
                </mxCell>
                <mxCell id="AZVIyAZrzU1uXmZ9Mev5-124" style="edgeStyle=none;html=1;" parent="1" source="AZVIyAZrzU1uXmZ9Mev5-122" target="AZVIyAZrzU1uXmZ9Mev5-106" edge="1">
                    <mxGeometry relative="1" as="geometry"/>
                </mxCell>
                <mxCell id="AZVIyAZrzU1uXmZ9Mev5-132" value="" style="edgeStyle=none;html=1;" parent="1" source="AZVIyAZrzU1uXmZ9Mev5-122" target="AZVIyAZrzU1uXmZ9Mev5-130" edge="1">
                    <mxGeometry relative="1" as="geometry"/>
                </mxCell>
                <mxCell id="AZVIyAZrzU1uXmZ9Mev5-134" value="" style="edgeStyle=none;html=1;" parent="1" source="AZVIyAZrzU1uXmZ9Mev5-122" target="AZVIyAZrzU1uXmZ9Mev5-133" edge="1">
                    <mxGeometry relative="1" as="geometry"/>
                </mxCell>
                <mxCell id="AZVIyAZrzU1uXmZ9Mev5-122" value="Does transferer email exist in userBalaces.csv&amp;gt;" style="rhombus;whiteSpace=wrap;html=1;" parent="1" vertex="1">
                    <mxGeometry x="3230" y="340" width="140" height="117" as="geometry"/>
                </mxCell>
                <mxCell id="AZVIyAZrzU1uXmZ9Mev5-125" value="" style="group" parent="1" vertex="1" connectable="0">
                    <mxGeometry x="3240" y="-68" width="120" height="408" as="geometry"/>
                </mxCell>
                <mxCell id="AZVIyAZrzU1uXmZ9Mev5-126" value="" style="edgeStyle=none;html=1;" parent="AZVIyAZrzU1uXmZ9Mev5-125" source="AZVIyAZrzU1uXmZ9Mev5-130" target="AZVIyAZrzU1uXmZ9Mev5-128" edge="1">
                    <mxGeometry relative="1" as="geometry"/>
                </mxCell>
                <mxCell id="AZVIyAZrzU1uXmZ9Mev5-127" value="" style="edgeStyle=none;html=1;" parent="AZVIyAZrzU1uXmZ9Mev5-125" source="AZVIyAZrzU1uXmZ9Mev5-128" target="AZVIyAZrzU1uXmZ9Mev5-131" edge="1">
                    <mxGeometry relative="1" as="geometry"/>
                </mxCell>
                <mxCell id="AZVIyAZrzU1uXmZ9Mev5-128" value="Report an error and exit the process" style="whiteSpace=wrap;html=1;" parent="AZVIyAZrzU1uXmZ9Mev5-125" vertex="1">
                    <mxGeometry y="140" width="120" height="60" as="geometry"/>
                </mxCell>
                <mxCell id="AZVIyAZrzU1uXmZ9Mev5-129" value="FALSE" style="text;html=1;align=center;verticalAlign=middle;resizable=0;points=[];autosize=1;strokeColor=none;fillColor=none;" parent="AZVIyAZrzU1uXmZ9Mev5-125" vertex="1">
                    <mxGeometry x="55" y="378" width="60" height="30" as="geometry"/>
                </mxCell>
                <mxCell id="AZVIyAZrzU1uXmZ9Mev5-130" value="Display an error saying failed to transfer (RED)" style="whiteSpace=wrap;html=1;" parent="AZVIyAZrzU1uXmZ9Mev5-125" vertex="1">
                    <mxGeometry y="265" width="120" height="60" as="geometry"/>
                </mxCell>
                <mxCell id="AZVIyAZrzU1uXmZ9Mev5-131" value="END" style="ellipse;whiteSpace=wrap;html=1;" parent="AZVIyAZrzU1uXmZ9Mev5-125" vertex="1">
                    <mxGeometry x="20" width="80" height="80" as="geometry"/>
                </mxCell>
                <mxCell id="AZVIyAZrzU1uXmZ9Mev5-137" value="" style="edgeStyle=none;html=1;" parent="1" source="AZVIyAZrzU1uXmZ9Mev5-133" target="AZVIyAZrzU1uXmZ9Mev5-136" edge="1">
                    <mxGeometry relative="1" as="geometry"/>
                </mxCell>
                <mxCell id="AZVIyAZrzU1uXmZ9Mev5-133" value="Remove amount transferred from currentBalance" style="whiteSpace=wrap;html=1;" parent="1" vertex="1">
                    <mxGeometry x="3460" y="368.5" width="120" height="60" as="geometry"/>
                </mxCell>
                <mxCell id="AZVIyAZrzU1uXmZ9Mev5-135" value="TRUE" style="text;html=1;align=center;verticalAlign=middle;resizable=0;points=[];autosize=1;strokeColor=none;fillColor=none;" parent="1" vertex="1">
                    <mxGeometry x="3380" y="368" width="60" height="30" as="geometry"/>
                </mxCell>
                <mxCell id="AZVIyAZrzU1uXmZ9Mev5-141" value="" style="edgeStyle=none;html=1;" parent="1" source="AZVIyAZrzU1uXmZ9Mev5-136" target="AZVIyAZrzU1uXmZ9Mev5-140" edge="1">
                    <mxGeometry relative="1" as="geometry"/>
                </mxCell>
                <mxCell id="AZVIyAZrzU1uXmZ9Mev5-140" value="Email,transfer;amountBefore;amountAfter" style="rounded=1;whiteSpace=wrap;html=1;" parent="1" vertex="1">
                    <mxGeometry x="3597.5" y="498" width="245" height="45" as="geometry"/>
                </mxCell>
                <mxCell id="AZVIyAZrzU1uXmZ9Mev5-149" value="" style="group" parent="1" vertex="1" connectable="0">
                    <mxGeometry x="745" y="50" width="625" height="290" as="geometry"/>
                </mxCell>
                <mxCell id="AZVIyAZrzU1uXmZ9Mev5-52" value="" style="edgeStyle=none;html=1;" parent="AZVIyAZrzU1uXmZ9Mev5-149" source="AZVIyAZrzU1uXmZ9Mev5-49" target="AZVIyAZrzU1uXmZ9Mev5-53" edge="1">
                    <mxGeometry relative="1" as="geometry">
                        <mxPoint x="305" y="179.99999999999977" as="targetPoint"/>
                    </mxGeometry>
                </mxCell>
                <mxCell id="AZVIyAZrzU1uXmZ9Mev5-49" value="Display prompt asking user if they want to try again" style="whiteSpace=wrap;html=1;" parent="AZVIyAZrzU1uXmZ9Mev5-149" vertex="1">
                    <mxGeometry x="505" y="150" width="120" height="60" as="geometry"/>
                </mxCell>
                <mxCell id="AZVIyAZrzU1uXmZ9Mev5-55" value="" style="edgeStyle=none;html=1;" parent="AZVIyAZrzU1uXmZ9Mev5-149" source="AZVIyAZrzU1uXmZ9Mev5-53" target="AZVIyAZrzU1uXmZ9Mev5-54" edge="1">
                    <mxGeometry relative="1" as="geometry"/>
                </mxCell>
                <mxCell id="AZVIyAZrzU1uXmZ9Mev5-53" value="User enters if they want to try again" style="shape=parallelogram;perimeter=parallelogramPerimeter;whiteSpace=wrap;html=1;fixedSize=1;" parent="AZVIyAZrzU1uXmZ9Mev5-149" vertex="1">
                    <mxGeometry x="315" y="140" width="140" height="80" as="geometry"/>
                </mxCell>
                <mxCell id="AZVIyAZrzU1uXmZ9Mev5-58" value="" style="edgeStyle=none;html=1;" parent="AZVIyAZrzU1uXmZ9Mev5-149" source="AZVIyAZrzU1uXmZ9Mev5-54" target="AZVIyAZrzU1uXmZ9Mev5-57" edge="1">
                    <mxGeometry relative="1" as="geometry"/>
                </mxCell>
                <mxCell id="AZVIyAZrzU1uXmZ9Mev5-66" value="" style="edgeStyle=none;html=1;" parent="AZVIyAZrzU1uXmZ9Mev5-149" source="AZVIyAZrzU1uXmZ9Mev5-54" target="AZVIyAZrzU1uXmZ9Mev5-65" edge="1">
                    <mxGeometry relative="1" as="geometry"/>
                </mxCell>
                <mxCell id="AZVIyAZrzU1uXmZ9Mev5-54" value="Did user enter &quot;y&quot; or &quot;n&quot;" style="rhombus;whiteSpace=wrap;html=1;" parent="AZVIyAZrzU1uXmZ9Mev5-149" vertex="1">
                    <mxGeometry x="165" y="125" width="105" height="110" as="geometry"/>
                </mxCell>
                <mxCell id="AZVIyAZrzU1uXmZ9Mev5-62" value="" style="edgeStyle=none;html=1;" parent="AZVIyAZrzU1uXmZ9Mev5-149" source="AZVIyAZrzU1uXmZ9Mev5-57" target="AZVIyAZrzU1uXmZ9Mev5-61" edge="1">
                    <mxGeometry relative="1" as="geometry"/>
                </mxCell>
                <mxCell id="AZVIyAZrzU1uXmZ9Mev5-60" value="Y" style="text;html=1;align=center;verticalAlign=middle;resizable=0;points=[];autosize=1;strokeColor=none;fillColor=none;" parent="AZVIyAZrzU1uXmZ9Mev5-149" vertex="1">
                    <mxGeometry x="45" y="260" width="30" height="30" as="geometry"/>
                </mxCell>
                <mxCell id="AZVIyAZrzU1uXmZ9Mev5-61" value="END" style="ellipse;whiteSpace=wrap;html=1;" parent="AZVIyAZrzU1uXmZ9Mev5-149" vertex="1">
                    <mxGeometry width="80" height="80" as="geometry"/>
                </mxCell>
                <mxCell id="AZVIyAZrzU1uXmZ9Mev5-63" value="N" style="text;html=1;align=center;verticalAlign=middle;resizable=0;points=[];autosize=1;strokeColor=none;fillColor=none;" parent="AZVIyAZrzU1uXmZ9Mev5-149" vertex="1">
                    <mxGeometry y="88" width="30" height="30" as="geometry"/>
                </mxCell>
                <mxCell id="AZVIyAZrzU1uXmZ9Mev5-64" value="TRUE" style="text;html=1;align=center;verticalAlign=middle;resizable=0;points=[];autosize=1;strokeColor=none;fillColor=none;" parent="AZVIyAZrzU1uXmZ9Mev5-149" vertex="1">
                    <mxGeometry x="100" y="150" width="60" height="30" as="geometry"/>
                </mxCell>
                <mxCell id="AZVIyAZrzU1uXmZ9Mev5-65" value="Display error saying user has to enter Y or N (RED)" style="whiteSpace=wrap;html=1;" parent="AZVIyAZrzU1uXmZ9Mev5-149" vertex="1">
                    <mxGeometry x="157.5" y="10" width="120" height="60" as="geometry"/>
                </mxCell>
                <mxCell id="AZVIyAZrzU1uXmZ9Mev5-67" value="FALSE" style="text;html=1;align=center;verticalAlign=middle;resizable=0;points=[];autosize=1;strokeColor=none;fillColor=none;" parent="AZVIyAZrzU1uXmZ9Mev5-149" vertex="1">
                    <mxGeometry x="157.5" y="88" width="60" height="30" as="geometry"/>
                </mxCell>
                <mxCell id="AZVIyAZrzU1uXmZ9Mev5-70" value="" style="edgeStyle=segmentEdgeStyle;endArrow=classic;html=1;curved=0;rounded=0;endSize=8;startSize=8;" parent="AZVIyAZrzU1uXmZ9Mev5-149" target="AZVIyAZrzU1uXmZ9Mev5-49" edge="1">
                    <mxGeometry width="50" height="50" relative="1" as="geometry">
                        <mxPoint x="275" y="40" as="sourcePoint"/>
                        <mxPoint x="325" y="-10" as="targetPoint"/>
                    </mxGeometry>
                </mxCell>
                <mxCell id="AZVIyAZrzU1uXmZ9Mev5-71" value="REPEAT UNTIL VALID VALUE ENTERED" style="text;html=1;align=center;verticalAlign=middle;resizable=0;points=[];autosize=1;strokeColor=none;fillColor=none;" parent="AZVIyAZrzU1uXmZ9Mev5-149" vertex="1">
                    <mxGeometry x="305" y="10" width="250" height="30" as="geometry"/>
                </mxCell>
                <mxCell id="AZVIyAZrzU1uXmZ9Mev5-192" value="" style="edgeStyle=segmentEdgeStyle;endArrow=classic;html=1;curved=0;rounded=0;endSize=8;startSize=8;entryX=0.5;entryY=1;entryDx=0;entryDy=0;" parent="1" target="AZVIyAZrzU1uXmZ9Mev5-175" edge="1">
                    <mxGeometry width="50" height="50" relative="1" as="geometry">
                        <mxPoint x="3750" y="400" as="sourcePoint"/>
                        <mxPoint x="3800" y="350" as="targetPoint"/>
                    </mxGeometry>
                </mxCell>
                <mxCell id="AZVIyAZrzU1uXmZ9Mev5-194" value="" style="group" parent="1" vertex="1" connectable="0">
                    <mxGeometry x="3460" y="-50" width="710" height="478.5" as="geometry"/>
                </mxCell>
                <mxCell id="AZVIyAZrzU1uXmZ9Mev5-173" value="" style="edgeStyle=none;html=1;" parent="AZVIyAZrzU1uXmZ9Mev5-194" source="AZVIyAZrzU1uXmZ9Mev5-174" target="AZVIyAZrzU1uXmZ9Mev5-178" edge="1">
                    <mxGeometry relative="1" as="geometry"/>
                </mxCell>
                <mxCell id="AZVIyAZrzU1uXmZ9Mev5-174" value="User enters if they want to try again" style="shape=parallelogram;perimeter=parallelogramPerimeter;whiteSpace=wrap;html=1;fixedSize=1;" parent="AZVIyAZrzU1uXmZ9Mev5-194" vertex="1">
                    <mxGeometry x="405" y="298" width="140" height="60" as="geometry"/>
                </mxCell>
                <mxCell id="AZVIyAZrzU1uXmZ9Mev5-193" value="" style="edgeStyle=none;html=1;" parent="AZVIyAZrzU1uXmZ9Mev5-194" source="AZVIyAZrzU1uXmZ9Mev5-175" target="AZVIyAZrzU1uXmZ9Mev5-174" edge="1">
                    <mxGeometry relative="1" as="geometry"/>
                </mxCell>
                <mxCell id="AZVIyAZrzU1uXmZ9Mev5-175" value="Display a message asking if user wants to try again" style="rounded=0;whiteSpace=wrap;html=1;" parent="AZVIyAZrzU1uXmZ9Mev5-194" vertex="1">
                    <mxGeometry x="415" y="408" width="120" height="60" as="geometry"/>
                </mxCell>
                <mxCell id="AZVIyAZrzU1uXmZ9Mev5-176" value="" style="edgeStyle=none;html=1;" parent="AZVIyAZrzU1uXmZ9Mev5-194" source="AZVIyAZrzU1uXmZ9Mev5-178" target="AZVIyAZrzU1uXmZ9Mev5-179" edge="1">
                    <mxGeometry relative="1" as="geometry"/>
                </mxCell>
                <mxCell id="AZVIyAZrzU1uXmZ9Mev5-177" value="" style="edgeStyle=none;html=1;" parent="AZVIyAZrzU1uXmZ9Mev5-194" source="AZVIyAZrzU1uXmZ9Mev5-178" target="AZVIyAZrzU1uXmZ9Mev5-183" edge="1">
                    <mxGeometry relative="1" as="geometry"/>
                </mxCell>
                <mxCell id="AZVIyAZrzU1uXmZ9Mev5-178" value="Did user enter &quot;y&quot; or &quot;n&quot;" style="rhombus;whiteSpace=wrap;html=1;" parent="AZVIyAZrzU1uXmZ9Mev5-194" vertex="1">
                    <mxGeometry x="422.5" y="118" width="105" height="110" as="geometry"/>
                </mxCell>
                <mxCell id="AZVIyAZrzU1uXmZ9Mev5-179" value="Keep repeating until they enter a valid value" style="whiteSpace=wrap;html=1;" parent="AZVIyAZrzU1uXmZ9Mev5-194" vertex="1">
                    <mxGeometry x="590" y="143" width="120" height="60" as="geometry"/>
                </mxCell>
                <mxCell id="AZVIyAZrzU1uXmZ9Mev5-180" value="" style="edgeStyle=segmentEdgeStyle;endArrow=classic;html=1;curved=0;rounded=0;endSize=8;startSize=8;" parent="AZVIyAZrzU1uXmZ9Mev5-194" target="AZVIyAZrzU1uXmZ9Mev5-175" edge="1">
                    <mxGeometry width="50" height="50" relative="1" as="geometry">
                        <mxPoint x="649.6000000000004" y="203" as="sourcePoint"/>
                        <mxPoint x="650" y="448" as="targetPoint"/>
                        <Array as="points">
                            <mxPoint x="630" y="203"/>
                            <mxPoint x="630" y="438"/>
                        </Array>
                    </mxGeometry>
                </mxCell>
                <mxCell id="AZVIyAZrzU1uXmZ9Mev5-181" value="FALSE" style="text;html=1;align=center;verticalAlign=middle;resizable=0;points=[];autosize=1;strokeColor=none;fillColor=none;" parent="AZVIyAZrzU1uXmZ9Mev5-194" vertex="1">
                    <mxGeometry x="525" y="143" width="60" height="30" as="geometry"/>
                </mxCell>
                <mxCell id="AZVIyAZrzU1uXmZ9Mev5-182" value="" style="edgeStyle=none;html=1;" parent="AZVIyAZrzU1uXmZ9Mev5-194" source="AZVIyAZrzU1uXmZ9Mev5-183" target="AZVIyAZrzU1uXmZ9Mev5-188" edge="1">
                    <mxGeometry relative="1" as="geometry"/>
                </mxCell>
                <mxCell id="AZVIyAZrzU1uXmZ9Mev5-183" value="y or n enetered?" style="rhombus;whiteSpace=wrap;html=1;" parent="AZVIyAZrzU1uXmZ9Mev5-194" vertex="1">
                    <mxGeometry x="180" y="118" width="105" height="110" as="geometry"/>
                </mxCell>
                <mxCell id="AZVIyAZrzU1uXmZ9Mev5-184" value="TRUE" style="text;html=1;align=center;verticalAlign=middle;resizable=0;points=[];autosize=1;strokeColor=none;fillColor=none;" parent="AZVIyAZrzU1uXmZ9Mev5-194" vertex="1">
                    <mxGeometry x="330" y="136" width="60" height="30" as="geometry"/>
                </mxCell>
                <mxCell id="AZVIyAZrzU1uXmZ9Mev5-185" value="" style="edgeStyle=none;html=1;" parent="AZVIyAZrzU1uXmZ9Mev5-194" source="AZVIyAZrzU1uXmZ9Mev5-183" target="AZVIyAZrzU1uXmZ9Mev5-186" edge="1">
                    <mxGeometry relative="1" as="geometry">
                        <mxPoint x="232" y="228" as="sourcePoint"/>
                        <mxPoint x="230" y="678" as="targetPoint"/>
                    </mxGeometry>
                </mxCell>
                <mxCell id="AZVIyAZrzU1uXmZ9Mev5-186" value="Repeat the process again" style="rounded=0;whiteSpace=wrap;html=1;" parent="AZVIyAZrzU1uXmZ9Mev5-194" vertex="1">
                    <mxGeometry x="172.5" width="120" height="60" as="geometry"/>
                </mxCell>
                <mxCell id="AZVIyAZrzU1uXmZ9Mev5-187" value="&quot;Y&quot;" style="text;html=1;align=center;verticalAlign=middle;resizable=0;points=[];autosize=1;strokeColor=none;fillColor=none;" parent="AZVIyAZrzU1uXmZ9Mev5-194" vertex="1">
                    <mxGeometry x="182.5" y="72" width="40" height="30" as="geometry"/>
                </mxCell>
                <mxCell id="AZVIyAZrzU1uXmZ9Mev5-188" value="END - terminate the process" style="ellipse;whiteSpace=wrap;html=1;" parent="AZVIyAZrzU1uXmZ9Mev5-194" vertex="1">
                    <mxGeometry y="133" width="80" height="80" as="geometry"/>
                </mxCell>
                <mxCell id="AZVIyAZrzU1uXmZ9Mev5-189" value="&quot;N&quot;" style="text;html=1;align=center;verticalAlign=middle;resizable=0;points=[];autosize=1;strokeColor=none;fillColor=none;" parent="AZVIyAZrzU1uXmZ9Mev5-194" vertex="1">
                    <mxGeometry x="110" y="136" width="40" height="30" as="geometry"/>
                </mxCell>
                <mxCell id="AZVIyAZrzU1uXmZ9Mev5-136" value="Add to transactionHistory.csv in format" style="whiteSpace=wrap;html=1;" parent="AZVIyAZrzU1uXmZ9Mev5-194" vertex="1">
                    <mxGeometry x="200" y="418.5" width="120" height="60" as="geometry"/>
                </mxCell>
                <mxCell id="AZVIyAZrzU1uXmZ9Mev5-197" value="" style="edgeStyle=segmentEdgeStyle;endArrow=classic;html=1;curved=0;rounded=0;endSize=8;startSize=8;entryX=0.5;entryY=0;entryDx=0;entryDy=0;" parent="1" source="AZVIyAZrzU1uXmZ9Mev5-186" target="AZVIyAZrzU1uXmZ9Mev5-85" edge="1">
                    <mxGeometry width="50" height="50" relative="1" as="geometry">
                        <mxPoint x="3650" y="-120" as="sourcePoint"/>
                        <mxPoint x="3693" y="-500" as="targetPoint"/>
                        <Array as="points">
                            <mxPoint x="3692" y="-430"/>
                            <mxPoint x="100" y="-430"/>
                        </Array>
                    </mxGeometry>
                </mxCell>
                <mxCell id="AZVIyAZrzU1uXmZ9Mev5-21" value="" style="edgeStyle=none;html=1;" parent="1" source="AZVIyAZrzU1uXmZ9Mev5-17" target="AZVIyAZrzU1uXmZ9Mev5-20" edge="1">
                    <mxGeometry relative="1" as="geometry"/>
                </mxCell>
                <mxCell id="AZVIyAZrzU1uXmZ9Mev5-17" value="User enters if they want to try again" style="shape=parallelogram;perimeter=parallelogramPerimeter;whiteSpace=wrap;html=1;fixedSize=1;" parent="1" vertex="1">
                    <mxGeometry x="505" y="-20" width="140" height="60" as="geometry"/>
                </mxCell>
                <mxCell id="AZVIyAZrzU1uXmZ9Mev5-19" value="Display a message asking if user wants to try again" style="rounded=0;whiteSpace=wrap;html=1;" parent="1" vertex="1">
                    <mxGeometry x="515" y="90" width="120" height="60" as="geometry"/>
                </mxCell>
                <mxCell id="AZVIyAZrzU1uXmZ9Mev5-23" value="" style="edgeStyle=none;html=1;" parent="1" source="AZVIyAZrzU1uXmZ9Mev5-20" target="AZVIyAZrzU1uXmZ9Mev5-22" edge="1">
                    <mxGeometry relative="1" as="geometry"/>
                </mxCell>
                <mxCell id="AZVIyAZrzU1uXmZ9Mev5-28" value="" style="edgeStyle=none;html=1;" parent="1" source="AZVIyAZrzU1uXmZ9Mev5-20" target="AZVIyAZrzU1uXmZ9Mev5-27" edge="1">
                    <mxGeometry relative="1" as="geometry"/>
                </mxCell>
                <mxCell id="AZVIyAZrzU1uXmZ9Mev5-20" value="Did user enter &quot;y&quot; or &quot;n&quot;" style="rhombus;whiteSpace=wrap;html=1;" parent="1" vertex="1">
                    <mxGeometry x="522.5" y="-200" width="105" height="110" as="geometry"/>
                </mxCell>
                <mxCell id="AZVIyAZrzU1uXmZ9Mev5-22" value="Keep repeating until they enter a valid value" style="whiteSpace=wrap;html=1;" parent="1" vertex="1">
                    <mxGeometry x="690" y="-175" width="120" height="60" as="geometry"/>
                </mxCell>
                <mxCell id="AZVIyAZrzU1uXmZ9Mev5-25" value="" style="edgeStyle=segmentEdgeStyle;endArrow=classic;html=1;curved=0;rounded=0;endSize=8;startSize=8;" parent="1" target="AZVIyAZrzU1uXmZ9Mev5-19" edge="1">
                    <mxGeometry width="50" height="50" relative="1" as="geometry">
                        <mxPoint x="749.6" y="-115" as="sourcePoint"/>
                        <mxPoint x="750" y="130" as="targetPoint"/>
                        <Array as="points">
                            <mxPoint x="730" y="-115"/>
                            <mxPoint x="730" y="120"/>
                        </Array>
                    </mxGeometry>
                </mxCell>
                <mxCell id="AZVIyAZrzU1uXmZ9Mev5-26" value="FALSE" style="text;html=1;align=center;verticalAlign=middle;resizable=0;points=[];autosize=1;strokeColor=none;fillColor=none;" parent="1" vertex="1">
                    <mxGeometry x="625" y="-175" width="60" height="30" as="geometry"/>
                </mxCell>
                <mxCell id="AZVIyAZrzU1uXmZ9Mev5-35" value="" style="edgeStyle=none;html=1;" parent="1" source="AZVIyAZrzU1uXmZ9Mev5-27" target="AZVIyAZrzU1uXmZ9Mev5-34" edge="1">
                    <mxGeometry relative="1" as="geometry"/>
                </mxCell>
                <mxCell id="AZVIyAZrzU1uXmZ9Mev5-27" value="y or n enetered?" style="rhombus;whiteSpace=wrap;html=1;" parent="1" vertex="1">
                    <mxGeometry x="280" y="-200" width="105" height="110" as="geometry"/>
                </mxCell>
                <mxCell id="AZVIyAZrzU1uXmZ9Mev5-29" value="TRUE" style="text;html=1;align=center;verticalAlign=middle;resizable=0;points=[];autosize=1;strokeColor=none;fillColor=none;" parent="1" vertex="1">
                    <mxGeometry x="430" y="-182" width="60" height="30" as="geometry"/>
                </mxCell>
                <mxCell id="AZVIyAZrzU1uXmZ9Mev5-32" value="" style="edgeStyle=none;html=1;" parent="1" source="AZVIyAZrzU1uXmZ9Mev5-27" target="AZVIyAZrzU1uXmZ9Mev5-31" edge="1">
                    <mxGeometry relative="1" as="geometry">
                        <mxPoint x="332" y="-90" as="sourcePoint"/>
                        <mxPoint x="330" y="360" as="targetPoint"/>
                    </mxGeometry>
                </mxCell>
                <mxCell id="AZVIyAZrzU1uXmZ9Mev5-31" value="Repeat the process again" style="rounded=0;whiteSpace=wrap;html=1;" parent="1" vertex="1">
                    <mxGeometry x="272.5" y="90" width="120" height="60" as="geometry"/>
                </mxCell>
                <mxCell id="AZVIyAZrzU1uXmZ9Mev5-33" value="&quot;Y&quot;" style="text;html=1;align=center;verticalAlign=middle;resizable=0;points=[];autosize=1;strokeColor=none;fillColor=none;" parent="1" vertex="1">
                    <mxGeometry x="282.5" y="-10" width="40" height="30" as="geometry"/>
                </mxCell>
                <mxCell id="AZVIyAZrzU1uXmZ9Mev5-34" value="END - terminate the process" style="ellipse;whiteSpace=wrap;html=1;" parent="1" vertex="1">
                    <mxGeometry x="130" y="-185" width="80" height="80" as="geometry"/>
                </mxCell>
                <mxCell id="AZVIyAZrzU1uXmZ9Mev5-36" value="&quot;N&quot;" style="text;html=1;align=center;verticalAlign=middle;resizable=0;points=[];autosize=1;strokeColor=none;fillColor=none;" parent="1" vertex="1">
                    <mxGeometry x="230" y="-182" width="40" height="30" as="geometry"/>
                </mxCell>
            </root>
        </mxGraphModel>
    </diagram>
    <diagram id="b04q5Aas7-FinaRvc4vi" name="Delete">
        <mxGraphModel dx="1889" dy="1631" grid="1" gridSize="10" guides="1" tooltips="1" connect="1" arrows="1" fold="1" page="1" pageScale="1" pageWidth="850" pageHeight="1100" math="0" shadow="0">
            <root>
                <mxCell id="0"/>
                <mxCell id="1" parent="0"/>
                <mxCell id="WTLnH8byf3fTb0J6SfBP-3" value="" style="edgeStyle=none;html=1;entryX=0.013;entryY=0.567;entryDx=0;entryDy=0;entryPerimeter=0;" parent="1" source="WTLnH8byf3fTb0J6SfBP-1" target="WTLnH8byf3fTb0J6SfBP-4" edge="1">
                    <mxGeometry relative="1" as="geometry">
                        <mxPoint x="240" y="410" as="targetPoint"/>
                    </mxGeometry>
                </mxCell>
                <mxCell id="WTLnH8byf3fTb0J6SfBP-1" value="Trigger - user chooses delete option" style="strokeWidth=2;html=1;shape=mxgraph.flowchart.start_1;whiteSpace=wrap;" parent="1" vertex="1">
                    <mxGeometry x="-200" y="380" width="100" height="60" as="geometry"/>
                </mxCell>
                <mxCell id="WTLnH8byf3fTb0J6SfBP-6" value="" style="edgeStyle=none;html=1;" parent="1" source="WTLnH8byf3fTb0J6SfBP-4" target="WTLnH8byf3fTb0J6SfBP-5" edge="1">
                    <mxGeometry relative="1" as="geometry"/>
                </mxCell>
                <mxCell id="WTLnH8byf3fTb0J6SfBP-8" value="" style="edgeStyle=none;html=1;" parent="1" source="WTLnH8byf3fTb0J6SfBP-4" target="WTLnH8byf3fTb0J6SfBP-7" edge="1">
                    <mxGeometry relative="1" as="geometry"/>
                </mxCell>
                <mxCell id="WTLnH8byf3fTb0J6SfBP-4" value="Get the email that is stored in the file" style="rounded=0;whiteSpace=wrap;html=1;" parent="1" vertex="1">
                    <mxGeometry x="250" y="370" width="140" height="70" as="geometry"/>
                </mxCell>
                <mxCell id="WTLnH8byf3fTb0J6SfBP-5" value="userCredentials.csv&lt;div&gt;userBalances.csv&lt;/div&gt;&lt;div&gt;hashmapDetails.csv&lt;/div&gt;&lt;div&gt;bankDetials.csv&lt;/div&gt;" style="shape=cylinder3;whiteSpace=wrap;html=1;boundedLbl=1;backgroundOutline=1;size=15;" parent="1" vertex="1">
                    <mxGeometry x="220" y="40" width="200" height="270" as="geometry"/>
                </mxCell>
                <mxCell id="WTLnH8byf3fTb0J6SfBP-10" value="" style="edgeStyle=none;html=1;" parent="1" source="WTLnH8byf3fTb0J6SfBP-7" target="WTLnH8byf3fTb0J6SfBP-11" edge="1">
                    <mxGeometry relative="1" as="geometry">
                        <mxPoint x="660" y="405" as="targetPoint"/>
                    </mxGeometry>
                </mxCell>
                <mxCell id="WTLnH8byf3fTb0J6SfBP-7" value="Replace all fields of that record with a blank space&amp;nbsp;" style="whiteSpace=wrap;html=1;rounded=0;" parent="1" vertex="1">
                    <mxGeometry x="630" y="375" width="120" height="60" as="geometry"/>
                </mxCell>
                <mxCell id="WTLnH8byf3fTb0J6SfBP-13" value="" style="edgeStyle=none;html=1;" parent="1" source="WTLnH8byf3fTb0J6SfBP-11" target="WTLnH8byf3fTb0J6SfBP-12" edge="1">
                    <mxGeometry relative="1" as="geometry"/>
                </mxCell>
                <mxCell id="3qM4kmJdVYqgWm7GI235-25" style="edgeStyle=none;html=1;entryX=0.5;entryY=1;entryDx=0;entryDy=0;" parent="1" source="WTLnH8byf3fTb0J6SfBP-11" target="WTLnH8byf3fTb0J6SfBP-40" edge="1">
                    <mxGeometry relative="1" as="geometry"/>
                </mxCell>
                <mxCell id="WTLnH8byf3fTb0J6SfBP-11" value="Is there another row below?" style="rhombus;whiteSpace=wrap;html=1;" parent="1" vertex="1">
                    <mxGeometry x="940" y="335" width="170" height="145" as="geometry"/>
                </mxCell>
                <mxCell id="WTLnH8byf3fTb0J6SfBP-16" value="" style="edgeStyle=none;html=1;" parent="1" source="WTLnH8byf3fTb0J6SfBP-12" target="WTLnH8byf3fTb0J6SfBP-15" edge="1">
                    <mxGeometry relative="1" as="geometry"/>
                </mxCell>
                <mxCell id="WTLnH8byf3fTb0J6SfBP-20" value="" style="edgeStyle=none;html=1;" parent="1" source="WTLnH8byf3fTb0J6SfBP-12" target="WTLnH8byf3fTb0J6SfBP-19" edge="1">
                    <mxGeometry relative="1" as="geometry"/>
                </mxCell>
                <mxCell id="WTLnH8byf3fTb0J6SfBP-12" value="Add the row contents to an ArrayList" style="whiteSpace=wrap;html=1;" parent="1" vertex="1">
                    <mxGeometry x="1190" y="375" width="120" height="60" as="geometry"/>
                </mxCell>
                <mxCell id="WTLnH8byf3fTb0J6SfBP-14" value="Get the row number that the deleted field was on" style="whiteSpace=wrap;html=1;" parent="1" vertex="1">
                    <mxGeometry x="790" y="375" width="120" height="60" as="geometry"/>
                </mxCell>
                <mxCell id="WTLnH8byf3fTb0J6SfBP-19" value="Repeat for remaining lines in file" style="whiteSpace=wrap;html=1;" parent="1" vertex="1">
                    <mxGeometry x="1190" y="520" width="120" height="60" as="geometry"/>
                </mxCell>
                <mxCell id="WTLnH8byf3fTb0J6SfBP-21" value="" style="edgeStyle=segmentEdgeStyle;endArrow=classic;html=1;curved=0;rounded=0;endSize=8;startSize=8;entryX=0.515;entryY=0.969;entryDx=0;entryDy=0;entryPerimeter=0;exitX=0;exitY=0.5;exitDx=0;exitDy=0;" parent="1" source="WTLnH8byf3fTb0J6SfBP-19" target="WTLnH8byf3fTb0J6SfBP-11" edge="1">
                    <mxGeometry width="50" height="50" relative="1" as="geometry">
                        <mxPoint x="970" y="600" as="sourcePoint"/>
                        <mxPoint x="1020" y="550" as="targetPoint"/>
                    </mxGeometry>
                </mxCell>
                <mxCell id="WTLnH8byf3fTb0J6SfBP-23" style="edgeStyle=none;html=1;" parent="1" source="WTLnH8byf3fTb0J6SfBP-22" target="WTLnH8byf3fTb0J6SfBP-5" edge="1">
                    <mxGeometry relative="1" as="geometry"/>
                </mxCell>
                <mxCell id="WTLnH8byf3fTb0J6SfBP-22" value="If fileread queue empty?&amp;nbsp;" style="rhombus;whiteSpace=wrap;html=1;" parent="1" vertex="1">
                    <mxGeometry x="-30" y="337.5" width="170" height="145" as="geometry"/>
                </mxCell>
                <mxCell id="WTLnH8byf3fTb0J6SfBP-24" value="" style="edgeStyle=segmentEdgeStyle;endArrow=classic;html=1;curved=0;rounded=0;endSize=8;startSize=8;" parent="1" source="WTLnH8byf3fTb0J6SfBP-34" edge="1">
                    <mxGeometry width="50" height="50" relative="1" as="geometry">
                        <mxPoint x="899.66" y="330" as="sourcePoint"/>
                        <mxPoint x="59.999999999999545" y="337.5000000000009" as="targetPoint"/>
                        <Array as="points"/>
                    </mxGeometry>
                </mxCell>
                <mxCell id="WTLnH8byf3fTb0J6SfBP-25" value="FALSE" style="text;html=1;align=center;verticalAlign=middle;resizable=0;points=[];autosize=1;strokeColor=none;fillColor=none;" parent="1" vertex="1">
                    <mxGeometry x="160" y="375" width="60" height="30" as="geometry"/>
                </mxCell>
                <mxCell id="WTLnH8byf3fTb0J6SfBP-26" value="FALSE" style="text;html=1;align=center;verticalAlign=middle;resizable=0;points=[];autosize=1;strokeColor=none;fillColor=none;" parent="1" vertex="1">
                    <mxGeometry x="1090" y="370" width="60" height="30" as="geometry"/>
                </mxCell>
                <mxCell id="WTLnH8byf3fTb0J6SfBP-27" value="TRUE" style="text;html=1;align=center;verticalAlign=middle;resizable=0;points=[];autosize=1;strokeColor=none;fillColor=none;" parent="1" vertex="1">
                    <mxGeometry x="1030" y="290" width="60" height="30" as="geometry"/>
                </mxCell>
                <mxCell id="WTLnH8byf3fTb0J6SfBP-28" value="&lt;font style=&quot;font-size: 24px;&quot;&gt;REPEAT FOR ALL REMAINING FILES&amp;nbsp;&lt;/font&gt;" style="text;html=1;align=center;verticalAlign=middle;resizable=0;points=[];autosize=1;strokeColor=none;fillColor=none;" parent="1" vertex="1">
                    <mxGeometry x="260" y="-70" width="440" height="40" as="geometry"/>
                </mxCell>
                <mxCell id="WTLnH8byf3fTb0J6SfBP-29" value="" style="edgeStyle=segmentEdgeStyle;endArrow=classic;html=1;curved=0;rounded=0;endSize=8;startSize=8;entryX=0.478;entryY=0.047;entryDx=0;entryDy=0;entryPerimeter=0;" parent="1" target="WTLnH8byf3fTb0J6SfBP-33" edge="1">
                    <mxGeometry width="50" height="50" relative="1" as="geometry">
                        <mxPoint x="54.66" y="482.5" as="sourcePoint"/>
                        <mxPoint x="55" y="740" as="targetPoint"/>
                    </mxGeometry>
                </mxCell>
                <mxCell id="WTLnH8byf3fTb0J6SfBP-31" value="" style="shape=singleArrow;whiteSpace=wrap;html=1;" parent="1" vertex="1">
                    <mxGeometry x="-160" y="570" width="190" height="60" as="geometry"/>
                </mxCell>
                <mxCell id="WTLnH8byf3fTb0J6SfBP-32" value="&lt;font style=&quot;font-size: 24px;&quot;&gt;WRITE ALL LINES BACK TO FILES&lt;/font&gt;" style="text;html=1;align=center;verticalAlign=middle;resizable=0;points=[];autosize=1;strokeColor=none;fillColor=none;" parent="1" vertex="1">
                    <mxGeometry x="-590" y="580" width="410" height="40" as="geometry"/>
                </mxCell>
                <mxCell id="WTLnH8byf3fTb0J6SfBP-44" value="" style="edgeStyle=none;html=1;" parent="1" source="WTLnH8byf3fTb0J6SfBP-33" target="WTLnH8byf3fTb0J6SfBP-43" edge="1">
                    <mxGeometry relative="1" as="geometry"/>
                </mxCell>
                <mxCell id="3qM4kmJdVYqgWm7GI235-2" value="" style="edgeStyle=none;html=1;" parent="1" source="WTLnH8byf3fTb0J6SfBP-33" target="3qM4kmJdVYqgWm7GI235-1" edge="1">
                    <mxGeometry relative="1" as="geometry"/>
                </mxCell>
                <mxCell id="WTLnH8byf3fTb0J6SfBP-33" value="Is queue empty" style="rhombus;whiteSpace=wrap;html=1;" parent="1" vertex="1">
                    <mxGeometry x="-30" y="730" width="172.5" height="160" as="geometry"/>
                </mxCell>
                <mxCell id="WTLnH8byf3fTb0J6SfBP-39" value="" style="edgeStyle=none;html=1;" parent="1" source="WTLnH8byf3fTb0J6SfBP-34" target="WTLnH8byf3fTb0J6SfBP-37" edge="1">
                    <mxGeometry relative="1" as="geometry"/>
                </mxCell>
                <mxCell id="WTLnH8byf3fTb0J6SfBP-34" value="Add filename to queue to be added back to later" style="whiteSpace=wrap;html=1;" parent="1" vertex="1">
                    <mxGeometry x="410" y="-170" width="120" height="60" as="geometry"/>
                </mxCell>
                <mxCell id="WTLnH8byf3fTb0J6SfBP-37" value="" style="strokeColor=#dddddd;shadow=1;strokeWidth=1;rounded=1;absoluteArcSize=1;arcSize=2;" parent="1" vertex="1">
                    <mxGeometry x="260" y="-340" width="420" height="120" as="geometry"/>
                </mxCell>
                <mxCell id="WTLnH8byf3fTb0J6SfBP-38" value="Task&lt;br&gt;FilesToWriteBackTo" style="sketch=0;dashed=0;connectable=0;html=1;fillColor=#757575;strokeColor=none;shape=mxgraph.gcp2.task_queues;part=1;labelPosition=right;verticalLabelPosition=middle;align=left;verticalAlign=middle;spacingLeft=5;fontSize=12;" parent="WTLnH8byf3fTb0J6SfBP-37" vertex="1">
                    <mxGeometry y="0.5" width="110" height="79.5" relative="1" as="geometry">
                        <mxPoint x="5" y="-16" as="offset"/>
                    </mxGeometry>
                </mxCell>
                <mxCell id="WTLnH8byf3fTb0J6SfBP-41" value="" style="shape=singleArrow;direction=west;whiteSpace=wrap;html=1;" parent="1" vertex="1">
                    <mxGeometry x="1140" y="100" width="160" height="60" as="geometry"/>
                </mxCell>
                <mxCell id="WTLnH8byf3fTb0J6SfBP-42" value="Key: FILENAME Value: RemainingLinesInFile" style="shape=dataStorage;whiteSpace=wrap;html=1;fixedSize=1;" parent="1" vertex="1">
                    <mxGeometry x="1320" y="90" width="310" height="80" as="geometry"/>
                </mxCell>
                <mxCell id="WTLnH8byf3fTb0J6SfBP-46" value="" style="edgeStyle=none;html=1;" parent="1" source="WTLnH8byf3fTb0J6SfBP-43" target="WTLnH8byf3fTb0J6SfBP-45" edge="1">
                    <mxGeometry relative="1" as="geometry"/>
                </mxCell>
                <mxCell id="WTLnH8byf3fTb0J6SfBP-57" style="edgeStyle=none;html=1;" parent="1" source="WTLnH8byf3fTb0J6SfBP-45" target="WTLnH8byf3fTb0J6SfBP-47" edge="1">
                    <mxGeometry relative="1" as="geometry"/>
                </mxCell>
                <mxCell id="WTLnH8byf3fTb0J6SfBP-45" value="Lookup the file name in the hashmap to get the ArrayList" style="whiteSpace=wrap;html=1;" parent="1" vertex="1">
                    <mxGeometry y="1055" width="120" height="60" as="geometry"/>
                </mxCell>
                <mxCell id="WTLnH8byf3fTb0J6SfBP-58" value="" style="edgeStyle=none;html=1;" parent="1" source="WTLnH8byf3fTb0J6SfBP-47" target="WTLnH8byf3fTb0J6SfBP-50" edge="1">
                    <mxGeometry relative="1" as="geometry"/>
                </mxCell>
                <mxCell id="WTLnH8byf3fTb0J6SfBP-61" value="" style="edgeStyle=none;html=1;" parent="1" source="WTLnH8byf3fTb0J6SfBP-47" target="WTLnH8byf3fTb0J6SfBP-60" edge="1">
                    <mxGeometry relative="1" as="geometry"/>
                </mxCell>
                <mxCell id="WTLnH8byf3fTb0J6SfBP-47" value="Is array empty" style="rhombus;whiteSpace=wrap;html=1;" parent="1" vertex="1">
                    <mxGeometry x="-320" y="1030" width="130" height="110" as="geometry"/>
                </mxCell>
                <mxCell id="WTLnH8byf3fTb0J6SfBP-50" value="Dequeue filename from queue" style="rounded=0;whiteSpace=wrap;html=1;" parent="1" vertex="1">
                    <mxGeometry x="-312.5" y="890" width="115" height="60" as="geometry"/>
                </mxCell>
                <mxCell id="WTLnH8byf3fTb0J6SfBP-51" value="TRUE" style="text;html=1;align=center;verticalAlign=middle;resizable=0;points=[];autosize=1;strokeColor=none;fillColor=none;" parent="1" vertex="1">
                    <mxGeometry x="-312.5" y="980" width="60" height="30" as="geometry"/>
                </mxCell>
                <mxCell id="WTLnH8byf3fTb0J6SfBP-52" value="FALSE" style="text;html=1;align=center;verticalAlign=middle;resizable=0;points=[];autosize=1;strokeColor=none;fillColor=none;" parent="1" vertex="1">
                    <mxGeometry x="-10" y="900" width="60" height="30" as="geometry"/>
                </mxCell>
                <mxCell id="WTLnH8byf3fTb0J6SfBP-43" value="Get the next file in the queue&amp;nbsp;" style="whiteSpace=wrap;html=1;" parent="1" vertex="1">
                    <mxGeometry y="950" width="120" height="60" as="geometry"/>
                </mxCell>
                <mxCell id="WTLnH8byf3fTb0J6SfBP-59" value="" style="edgeStyle=segmentEdgeStyle;endArrow=classic;html=1;curved=0;rounded=0;endSize=8;startSize=8;exitX=0.457;exitY=0;exitDx=0;exitDy=0;exitPerimeter=0;" parent="1" source="WTLnH8byf3fTb0J6SfBP-50" edge="1">
                    <mxGeometry width="50" height="50" relative="1" as="geometry">
                        <mxPoint x="-260" y="810" as="sourcePoint"/>
                        <mxPoint x="-30" y="809.66" as="targetPoint"/>
                        <Array as="points">
                            <mxPoint x="-260" y="810"/>
                        </Array>
                    </mxGeometry>
                </mxCell>
                <mxCell id="WTLnH8byf3fTb0J6SfBP-63" value="" style="edgeStyle=none;html=1;" parent="1" source="WTLnH8byf3fTb0J6SfBP-60" target="WTLnH8byf3fTb0J6SfBP-62" edge="1">
                    <mxGeometry relative="1" as="geometry"/>
                </mxCell>
                <mxCell id="WTLnH8byf3fTb0J6SfBP-60" value="Increment index" style="whiteSpace=wrap;html=1;" parent="1" vertex="1">
                    <mxGeometry x="-315" y="1190" width="120" height="60" as="geometry"/>
                </mxCell>
                <mxCell id="WTLnH8byf3fTb0J6SfBP-62" value="Write current index to file" style="whiteSpace=wrap;html=1;" parent="1" vertex="1">
                    <mxGeometry x="-315" y="1290" width="120" height="60" as="geometry"/>
                </mxCell>
                <mxCell id="WTLnH8byf3fTb0J6SfBP-64" value="" style="edgeStyle=segmentEdgeStyle;endArrow=classic;html=1;curved=0;rounded=0;endSize=8;startSize=8;" parent="1" source="WTLnH8byf3fTb0J6SfBP-62" target="WTLnH8byf3fTb0J6SfBP-65" edge="1">
                    <mxGeometry width="50" height="50" relative="1" as="geometry">
                        <mxPoint x="-460" y="1320" as="sourcePoint"/>
                        <mxPoint x="-490" y="1120" as="targetPoint"/>
                    </mxGeometry>
                </mxCell>
                <mxCell id="WTLnH8byf3fTb0J6SfBP-66" value="" style="edgeStyle=none;html=1;" parent="1" source="WTLnH8byf3fTb0J6SfBP-65" target="WTLnH8byf3fTb0J6SfBP-47" edge="1">
                    <mxGeometry relative="1" as="geometry"/>
                </mxCell>
                <mxCell id="WTLnH8byf3fTb0J6SfBP-65" value="Repeat" style="whiteSpace=wrap;html=1;" parent="1" vertex="1">
                    <mxGeometry x="-550" y="1055" width="120" height="60" as="geometry"/>
                </mxCell>
                <mxCell id="WTLnH8byf3fTb0J6SfBP-67" value="FALSE" style="text;html=1;align=center;verticalAlign=middle;resizable=0;points=[];autosize=1;strokeColor=none;fillColor=none;" parent="1" vertex="1">
                    <mxGeometry x="-312.5" y="1150" width="60" height="30" as="geometry"/>
                </mxCell>
                <mxCell id="3qM4kmJdVYqgWm7GI235-5" value="" style="edgeStyle=none;html=1;" parent="1" source="3qM4kmJdVYqgWm7GI235-1" target="3qM4kmJdVYqgWm7GI235-4" edge="1">
                    <mxGeometry relative="1" as="geometry"/>
                </mxCell>
                <mxCell id="3qM4kmJdVYqgWm7GI235-1" value="Display a success message to the user indicating the deletion of their&amp;nbsp; account&amp;nbsp;" style="whiteSpace=wrap;html=1;" parent="1" vertex="1">
                    <mxGeometry x="245" y="770" width="155" height="80" as="geometry"/>
                </mxCell>
                <mxCell id="3qM4kmJdVYqgWm7GI235-4" value="END" style="ellipse;whiteSpace=wrap;html=1;" parent="1" vertex="1">
                    <mxGeometry x="470" y="770" width="82.5" height="80" as="geometry"/>
                </mxCell>
                <mxCell id="3qM4kmJdVYqgWm7GI235-6" value="TRUE" style="text;html=1;align=center;verticalAlign=middle;resizable=0;points=[];autosize=1;strokeColor=none;fillColor=none;" parent="1" vertex="1">
                    <mxGeometry x="160" y="770" width="60" height="30" as="geometry"/>
                </mxCell>
                <mxCell id="3qM4kmJdVYqgWm7GI235-8" value="" style="group" parent="1" vertex="1" connectable="0">
                    <mxGeometry x="1380" y="340" width="460" height="140" as="geometry"/>
                </mxCell>
                <mxCell id="WTLnH8byf3fTb0J6SfBP-15" value="" style="image;aspect=fixed;perimeter=ellipsePerimeter;html=1;align=center;shadow=0;dashed=0;spacingTop=3;image=img/lib/active_directory/list.svg;" parent="3qM4kmJdVYqgWm7GI235-8" vertex="1">
                    <mxGeometry width="98" height="140" as="geometry"/>
                </mxCell>
                <mxCell id="WTLnH8byf3fTb0J6SfBP-17" value="" style="shape=singleArrow;direction=west;whiteSpace=wrap;html=1;" parent="3qM4kmJdVYqgWm7GI235-8" vertex="1">
                    <mxGeometry x="110" y="45" width="100" height="60" as="geometry"/>
                </mxCell>
                <mxCell id="WTLnH8byf3fTb0J6SfBP-18" value="&lt;font style=&quot;font-size: 24px;&quot;&gt;RemainingLinesInFile&lt;/font&gt;" style="text;html=1;align=center;verticalAlign=middle;resizable=0;points=[];autosize=1;strokeColor=none;fillColor=none;" parent="3qM4kmJdVYqgWm7GI235-8" vertex="1">
                    <mxGeometry x="210" y="55" width="250" height="40" as="geometry"/>
                </mxCell>
                <mxCell id="3qM4kmJdVYqgWm7GI235-9" value="If file userBalances.csv" style="rhombus;whiteSpace=wrap;html=1;" parent="1" vertex="1">
                    <mxGeometry x="456.25" y="337.5" width="110" height="135" as="geometry"/>
                </mxCell>
                <mxCell id="3qM4kmJdVYqgWm7GI235-10" value="FALSE" style="text;html=1;align=center;verticalAlign=middle;resizable=0;points=[];autosize=1;strokeColor=none;fillColor=none;" parent="1" vertex="1">
                    <mxGeometry x="570" y="368" width="60" height="30" as="geometry"/>
                </mxCell>
                <mxCell id="3qM4kmJdVYqgWm7GI235-11" value="" style="edgeStyle=segmentEdgeStyle;endArrow=classic;html=1;curved=0;rounded=0;endSize=8;startSize=8;exitX=0.5;exitY=0.951;exitDx=0;exitDy=0;exitPerimeter=0;entryX=0;entryY=0.5;entryDx=0;entryDy=0;" parent="1" target="3qM4kmJdVYqgWm7GI235-12" edge="1">
                    <mxGeometry width="50" height="50" relative="1" as="geometry">
                        <mxPoint x="511.25" y="472.50499999999977" as="sourcePoint"/>
                        <mxPoint x="650" y="680" as="targetPoint"/>
                        <Array as="points">
                            <mxPoint x="511" y="710"/>
                            <mxPoint x="620" y="710"/>
                        </Array>
                    </mxGeometry>
                </mxCell>
                <mxCell id="3qM4kmJdVYqgWm7GI235-14" value="" style="edgeStyle=none;html=1;" parent="1" source="3qM4kmJdVYqgWm7GI235-12" target="3qM4kmJdVYqgWm7GI235-13" edge="1">
                    <mxGeometry relative="1" as="geometry"/>
                </mxCell>
                <mxCell id="3qM4kmJdVYqgWm7GI235-12" value="Store the balance record into a variable" style="rounded=0;whiteSpace=wrap;html=1;" parent="1" vertex="1">
                    <mxGeometry x="620" y="680" width="160" height="70" as="geometry"/>
                </mxCell>
                <mxCell id="3qM4kmJdVYqgWm7GI235-16" value="" style="edgeStyle=none;html=1;" parent="1" source="3qM4kmJdVYqgWm7GI235-13" target="3qM4kmJdVYqgWm7GI235-15" edge="1">
                    <mxGeometry relative="1" as="geometry"/>
                </mxCell>
                <mxCell id="3qM4kmJdVYqgWm7GI235-13" value="Perform a transfer operation on from the account to be deleted to the main bank.&amp;nbsp;" style="whiteSpace=wrap;html=1;rounded=0;" parent="1" vertex="1">
                    <mxGeometry x="860" y="690" width="170" height="60" as="geometry"/>
                </mxCell>
                <mxCell id="3qM4kmJdVYqgWm7GI235-17" style="edgeStyle=none;html=1;entryX=0.5;entryY=1;entryDx=0;entryDy=0;" parent="1" source="3qM4kmJdVYqgWm7GI235-15" target="WTLnH8byf3fTb0J6SfBP-14" edge="1">
                    <mxGeometry relative="1" as="geometry"/>
                </mxCell>
                <mxCell id="3qM4kmJdVYqgWm7GI235-20" value="" style="edgeStyle=none;html=1;" parent="1" source="3qM4kmJdVYqgWm7GI235-15" target="3qM4kmJdVYqgWm7GI235-19" edge="1">
                    <mxGeometry relative="1" as="geometry"/>
                </mxCell>
                <mxCell id="3qM4kmJdVYqgWm7GI235-15" value="Is transfer successful?&amp;nbsp;" style="rhombus;whiteSpace=wrap;html=1;rounded=0;" parent="1" vertex="1">
                    <mxGeometry x="1100" y="662.5" width="120" height="115" as="geometry"/>
                </mxCell>
                <mxCell id="3qM4kmJdVYqgWm7GI235-18" value="TRUE" style="text;html=1;align=center;verticalAlign=middle;resizable=0;points=[];autosize=1;strokeColor=none;fillColor=none;" parent="1" vertex="1">
                    <mxGeometry x="1060" y="598" width="60" height="30" as="geometry"/>
                </mxCell>
                <mxCell id="3qM4kmJdVYqgWm7GI235-19" value="Reattempt transfer - cannot delete money" style="whiteSpace=wrap;html=1;rounded=0;" parent="1" vertex="1">
                    <mxGeometry x="1100" y="890" width="120" height="60" as="geometry"/>
                </mxCell>
                <mxCell id="3qM4kmJdVYqgWm7GI235-21" value="FALSE" style="text;html=1;align=center;verticalAlign=middle;resizable=0;points=[];autosize=1;strokeColor=none;fillColor=none;" parent="1" vertex="1">
                    <mxGeometry x="1170" y="800" width="60" height="30" as="geometry"/>
                </mxCell>
                <mxCell id="3qM4kmJdVYqgWm7GI235-22" value="" style="edgeStyle=segmentEdgeStyle;endArrow=classic;html=1;curved=0;rounded=0;endSize=8;startSize=8;" parent="1" source="3qM4kmJdVYqgWm7GI235-19" target="3qM4kmJdVYqgWm7GI235-13" edge="1">
                    <mxGeometry width="50" height="50" relative="1" as="geometry">
                        <mxPoint x="980" y="910" as="sourcePoint"/>
                        <mxPoint x="1030" y="860" as="targetPoint"/>
                        <Array as="points">
                            <mxPoint x="945" y="930"/>
                        </Array>
                    </mxGeometry>
                </mxCell>
                <mxCell id="WTLnH8byf3fTb0J6SfBP-40" value="Add current ArrayList to hashmap in format&amp;nbsp;" style="rounded=0;whiteSpace=wrap;html=1;" parent="1" vertex="1">
                    <mxGeometry x="965" y="110" width="120" height="60" as="geometry"/>
                </mxCell>
                <mxCell id="3qM4kmJdVYqgWm7GI235-26" value="" style="edgeStyle=segmentEdgeStyle;endArrow=classic;html=1;curved=0;rounded=0;endSize=8;startSize=8;entryX=1;entryY=0.5;entryDx=0;entryDy=0;" parent="1" target="WTLnH8byf3fTb0J6SfBP-34" edge="1">
                    <mxGeometry width="50" height="50" relative="1" as="geometry">
                        <mxPoint x="1024.47" y="110" as="sourcePoint"/>
                        <mxPoint x="560" y="-140" as="targetPoint"/>
                        <Array as="points">
                            <mxPoint x="1024" y="-140"/>
                        </Array>
                    </mxGeometry>
                </mxCell>
            </root>
        </mxGraphModel>
    </diagram>
    <diagram id="ye5VbnFPax6jN4XLUrwa" name="API Design">
        <mxGraphModel dx="1336" dy="779" grid="1" gridSize="10" guides="1" tooltips="1" connect="1" arrows="1" fold="1" page="1" pageScale="1" pageWidth="850" pageHeight="1100" math="0" shadow="0">
            <root>
                <mxCell id="0"/>
                <mxCell id="1" parent="0"/>
                <mxCell id="1zsJV_CRU7ZOyoEeJzyt-4" value="" style="group" parent="1" vertex="1" connectable="0">
                    <mxGeometry x="425" y="340" width="184.88" height="142" as="geometry"/>
                </mxCell>
                <mxCell id="1zsJV_CRU7ZOyoEeJzyt-2" value="" style="aspect=fixed;sketch=0;html=1;dashed=0;whitespace=wrap;verticalLabelPosition=bottom;verticalAlign=top;fillColor=#2875E2;strokeColor=#ffffff;points=[[0.005,0.63,0],[0.1,0.2,0],[0.9,0.2,0],[0.5,0,0],[0.995,0.63,0],[0.72,0.99,0],[0.5,1,0],[0.28,0.99,0]];shape=mxgraph.kubernetes.icon2;kubernetesLabel=1;prIcon=api;movable=0;resizable=0;rotatable=0;deletable=0;editable=0;locked=1;connectable=0;" parent="1zsJV_CRU7ZOyoEeJzyt-4" vertex="1">
                    <mxGeometry x="38" y="52" width="93.75" height="90" as="geometry"/>
                </mxCell>
                <mxCell id="1zsJV_CRU7ZOyoEeJzyt-3" value="&lt;font style=&quot;font-size: 18px;&quot;&gt;REST API&lt;/font&gt;" style="text;html=1;align=center;verticalAlign=middle;resizable=0;points=[];autosize=1;strokeColor=none;fillColor=none;" parent="1zsJV_CRU7ZOyoEeJzyt-4" vertex="1">
                    <mxGeometry x="34.88" y="7" width="100" height="40" as="geometry"/>
                </mxCell>
                <mxCell id="1zsJV_CRU7ZOyoEeJzyt-5" value="&lt;font style=&quot;font-size: 18px;&quot;&gt;Operations&lt;/font&gt;" style="text;html=1;align=center;verticalAlign=middle;resizable=0;points=[];autosize=1;strokeColor=none;fillColor=none;" parent="1" vertex="1">
                    <mxGeometry x="95" y="150" width="110" height="40" as="geometry"/>
                </mxCell>
                <mxCell id="1zsJV_CRU7ZOyoEeJzyt-13" value="" style="group" parent="1" vertex="1" connectable="0">
                    <mxGeometry x="90" y="200" width="120" height="460" as="geometry"/>
                </mxCell>
                <mxCell id="1zsJV_CRU7ZOyoEeJzyt-6" value="Login" style="rounded=1;whiteSpace=wrap;html=1;" parent="1zsJV_CRU7ZOyoEeJzyt-13" vertex="1">
                    <mxGeometry width="120" height="60" as="geometry"/>
                </mxCell>
                <mxCell id="1zsJV_CRU7ZOyoEeJzyt-8" value="Sign Up" style="rounded=1;whiteSpace=wrap;html=1;" parent="1zsJV_CRU7ZOyoEeJzyt-13" vertex="1">
                    <mxGeometry y="80" width="120" height="60" as="geometry"/>
                </mxCell>
                <mxCell id="1zsJV_CRU7ZOyoEeJzyt-9" value="Check Balance" style="rounded=1;whiteSpace=wrap;html=1;" parent="1zsJV_CRU7ZOyoEeJzyt-13" vertex="1">
                    <mxGeometry y="160" width="120" height="60" as="geometry"/>
                </mxCell>
                <mxCell id="1zsJV_CRU7ZOyoEeJzyt-10" value="Deposit Money" style="rounded=1;whiteSpace=wrap;html=1;" parent="1zsJV_CRU7ZOyoEeJzyt-13" vertex="1">
                    <mxGeometry y="240" width="120" height="60" as="geometry"/>
                </mxCell>
                <mxCell id="1zsJV_CRU7ZOyoEeJzyt-11" value="View Transaction History" style="rounded=1;whiteSpace=wrap;html=1;" parent="1zsJV_CRU7ZOyoEeJzyt-13" vertex="1">
                    <mxGeometry y="400" width="120" height="60" as="geometry"/>
                </mxCell>
                <mxCell id="1zsJV_CRU7ZOyoEeJzyt-12" value="Withdraw Money" style="rounded=1;whiteSpace=wrap;html=1;" parent="1zsJV_CRU7ZOyoEeJzyt-13" vertex="1">
                    <mxGeometry y="320" width="120" height="60" as="geometry"/>
                </mxCell>
                <mxCell id="1zsJV_CRU7ZOyoEeJzyt-14" value="" style="shape=flexArrow;endArrow=classic;html=1;" parent="1" target="1zsJV_CRU7ZOyoEeJzyt-2" edge="1">
                    <mxGeometry width="50" height="50" relative="1" as="geometry">
                        <mxPoint x="240" y="290" as="sourcePoint"/>
                        <mxPoint x="290" y="240" as="targetPoint"/>
                    </mxGeometry>
                </mxCell>
                <mxCell id="1zsJV_CRU7ZOyoEeJzyt-15" value="GET, PUT, POST, DELETE Method" style="text;html=1;align=center;verticalAlign=middle;resizable=1;points=[];autosize=1;strokeColor=none;fillColor=none;rotation=30;movable=1;rotatable=1;deletable=1;editable=1;locked=0;connectable=1;" parent="1" vertex="1">
                    <mxGeometry x="220" y="350" width="210" height="30" as="geometry"/>
                </mxCell>
                <mxCell id="1zsJV_CRU7ZOyoEeJzyt-18" value="" style="group" parent="1" vertex="1" connectable="0">
                    <mxGeometry x="746.4" y="37.5" width="200" height="205" as="geometry"/>
                </mxCell>
                <mxCell id="1zsJV_CRU7ZOyoEeJzyt-16" value="" style="image;html=1;image=img/lib/clip_art/computers/Database_128x128.png" parent="1zsJV_CRU7ZOyoEeJzyt-18" vertex="1">
                    <mxGeometry y="65" width="200" height="140" as="geometry"/>
                </mxCell>
                <mxCell id="1zsJV_CRU7ZOyoEeJzyt-17" value="&lt;font style=&quot;font-size: 24px;&quot;&gt;Data Source&lt;/font&gt;" style="text;html=1;align=center;verticalAlign=middle;resizable=0;points=[];autosize=1;strokeColor=none;fillColor=none;" parent="1zsJV_CRU7ZOyoEeJzyt-18" vertex="1">
                    <mxGeometry x="20" width="160" height="40" as="geometry"/>
                </mxCell>
                <mxCell id="1zsJV_CRU7ZOyoEeJzyt-21" value="" style="group" parent="1" vertex="1" connectable="0">
                    <mxGeometry x="766.4" y="540" width="180" height="193" as="geometry"/>
                </mxCell>
                <mxCell id="1zsJV_CRU7ZOyoEeJzyt-19" value="" style="sketch=0;html=1;aspect=fixed;strokeColor=none;shadow=0;fillColor=#3B8DF1;verticalAlign=top;labelPosition=center;verticalLabelPosition=bottom;shape=mxgraph.gcp2.gear" parent="1zsJV_CRU7ZOyoEeJzyt-21" vertex="1">
                    <mxGeometry x="30" width="130" height="130" as="geometry"/>
                </mxCell>
                <mxCell id="1zsJV_CRU7ZOyoEeJzyt-20" value="&lt;font style=&quot;font-size: 24px;&quot;&gt;Other Services&lt;/font&gt;" style="text;html=1;align=center;verticalAlign=middle;resizable=0;points=[];autosize=1;strokeColor=none;fillColor=none;" parent="1zsJV_CRU7ZOyoEeJzyt-21" vertex="1">
                    <mxGeometry y="153" width="180" height="40" as="geometry"/>
                </mxCell>
                <mxCell id="1zsJV_CRU7ZOyoEeJzyt-22" value="" style="shape=doubleArrow;whiteSpace=wrap;html=1;rotation=90;" parent="1" vertex="1">
                    <mxGeometry x="719.52" y="366" width="253.75" height="60" as="geometry"/>
                </mxCell>
                <mxCell id="1zsJV_CRU7ZOyoEeJzyt-23" value="&lt;blockquote style=&quot;margin: 0 0 0 40px; border: none; padding: 0px;&quot;&gt;&lt;font style=&quot;font-size: 10px;&quot;&gt;SERVICE RELIES ON DATA AND VICE VERSA&lt;/font&gt;&lt;/blockquote&gt;" style="text;html=1;align=center;verticalAlign=middle;resizable=0;points=[];autosize=1;strokeColor=none;fillColor=none;rotation=-90;" parent="1" vertex="1">
                    <mxGeometry x="750" y="396" width="280" height="30" as="geometry"/>
                </mxCell>
                <mxCell id="1zsJV_CRU7ZOyoEeJzyt-24" value="" style="shape=doubleArrow;whiteSpace=wrap;html=1;rotation=30;arrowWidth=0.2769501559647324;arrowSize=0.2301043130964022;" parent="1" vertex="1">
                    <mxGeometry x="520.89" y="509.34" width="294.85" height="60" as="geometry"/>
                </mxCell>
                <mxCell id="1zsJV_CRU7ZOyoEeJzyt-26" value="SEND REQUEST TO SERVICE" style="text;html=1;align=center;verticalAlign=middle;resizable=0;points=[];autosize=1;strokeColor=none;fillColor=none;rotation=30;" parent="1" vertex="1">
                    <mxGeometry x="525.15" y="550" width="190" height="30" as="geometry"/>
                </mxCell>
                <mxCell id="1zsJV_CRU7ZOyoEeJzyt-27" value="&lt;font style=&quot;font-size: 10px;&quot;&gt;REQUESTED DATA/ERROR IS SENT BACK TO SERVICE&lt;/font&gt;" style="text;html=1;align=center;verticalAlign=middle;resizable=0;points=[];autosize=1;strokeColor=none;fillColor=none;rotation=-90;" parent="1" vertex="1">
                    <mxGeometry x="660" y="396" width="290" height="30" as="geometry"/>
                </mxCell>
                <mxCell id="1zsJV_CRU7ZOyoEeJzyt-28" value="SERVICE PROVIDES A RESPONSE&amp;nbsp;" style="text;html=1;align=center;verticalAlign=middle;resizable=0;points=[];autosize=1;strokeColor=none;fillColor=none;rotation=30;" parent="1" vertex="1">
                    <mxGeometry x="550" y="463.44" width="220" height="30" as="geometry"/>
                </mxCell>
                <mxCell id="1zsJV_CRU7ZOyoEeJzyt-29" value="" style="shape=singleArrow;direction=west;whiteSpace=wrap;html=1;rotation=-30;" parent="1" vertex="1">
                    <mxGeometry x="221.39" y="490.5" width="270" height="60" as="geometry"/>
                </mxCell>
                <mxCell id="1zsJV_CRU7ZOyoEeJzyt-30" value="RESPONSE IS IN A JSON/XML FORMAT" style="text;html=1;align=center;verticalAlign=middle;resizable=0;points=[];autosize=1;strokeColor=none;fillColor=none;rotation=-30;" parent="1" vertex="1">
                    <mxGeometry x="260" y="535" width="250" height="30" as="geometry"/>
                </mxCell>
            </root>
        </mxGraphModel>
    </diagram>
</mxfile>